<?xml version="1.0" encoding="utf-8"?>
<!-- Generator: Adobe Illustrator 28.5.0, SVG Export Plug-In . SVG Version: 9.03 Build 54727)  -->
<svg version="1.1" id="Layer_1" xmlns="http://www.w3.org/2000/svg" xmlns:xlink="http://www.w3.org/1999/xlink" x="0px" y="0px"
	 viewBox="0 0 775.62 106.04" xml:space="preserve" preserveAspectRatio="xMinYMid meet">
<style type="text/css">
	.st0{fill:#B0B7BC;}
	.st1{fill:#B5121B;}
	.st2{fill:#FFFFFF;}
	.st3{fill:none;stroke:#6A737B;stroke-width:1.85;}
	.st4{fill:#6A737B;}
</style>
<g>
	<path class="st0" d="M775.62,40.76v7.13c0,13.24-6.5,42.55-38.43,58.15c-31.93-15.6-38.43-44.91-38.43-58.15v-7.13H775.62
		L775.62,40.76z"/>
	<path class="st1" d="M737.18,8.75c0,0,25.08-0.36,38.43,4.9v27.1h-76.86v-27.1C712.11,8.39,737.18,8.75,737.18,8.75"/>
	<path class="st2" d="M707.1,16.67c-0.07,0.01-0.14,0.03-0.19,0.04c0.05-0.07,0.13-0.16,0.23-0.24c0.16-0.14,0.38-0.26,0.66-0.26
		c0.24,0,0.52,0.09,0.86,0.34c-0.05,0.03-0.1,0.06-0.15,0.09c-0.1,0.08-0.19,0.17-0.28,0.25c-0.12-0.1-0.38-0.26-0.8-0.26
		C707.33,16.63,707.22,16.64,707.1,16.67L707.1,16.67z M707.88,19.02c-0.2-0.06-0.38-0.09-0.54-0.09c-0.42,0-0.67,0.19-0.83,0.4
		c-0.11,0.15-0.18,0.32-0.21,0.44c0.05-0.03,0.1-0.07,0.17-0.11c0.29-0.18,0.56-0.23,0.77-0.23c0.15,0,0.27,0.03,0.35,0.05
		C707.7,19.24,707.84,19.07,707.88,19.02C707.88,19.03,707.88,19.03,707.88,19.02L707.88,19.02z M708.16,17.69
		c-0.03,0.05-0.04,0.07-0.04,0.07v0l0,0l-0.01,0.01l-0.02,0.04c-0.01,0.04-0.03,0.09-0.03,0.15c0,0.1,0.03,0.22,0.21,0.33
		c0.22,0.13,0.63,0.4,0.98,0.62c0.12-0.33,0.31-0.62,0.56-0.86l-0.53-1.01l0,0l0-0.01l-0.01-0.02l-0.05-0.06
		c-0.04-0.05-0.1-0.09-0.19-0.09c-0.06,0-0.15,0.03-0.26,0.11C708.46,17.23,708.25,17.55,708.16,17.69L708.16,17.69z M710.06,35.07
		c-0.11,0.24-0.14,0.48-0.14,0.66c0,0.02,0,0.03,0,0.04c0.02-0.03,0.04-0.07,0.06-0.12c0.21-0.37,0.51-0.57,0.75-0.68
		c-0.04-0.17-0.08-0.33-0.1-0.5C710.34,34.64,710.16,34.85,710.06,35.07L710.06,35.07z M711.06,22.94c0.49,0.4,0.77,0.54,0.94,0.54
		c0.11,0,0.18-0.05,0.27-0.14c0.05-0.07,0.12-0.17,0.2-0.28c0.06-0.1,0.09-0.22,0.09-0.35c0-0.24-0.09-0.5-0.14-0.61v0
		c-0.05-0.12-1.18-2.65-1.46-3.67c-0.04-0.14-0.04-0.3-0.06-0.37l-0.03-0.04c-0.02-0.01-0.04-0.02-0.08-0.02
		c-0.08,0-0.2,0.04-0.31,0.1c-0.68,0.41-0.93,1.02-0.93,1.68C709.54,21.01,710.44,22.43,711.06,22.94L711.06,22.94z M709.12,19.57
		c0-0.05,0.01-0.09,0.01-0.14c0.01-0.06-0.4-0.21-0.45-0.23c-0.16-0.04-0.35-0.02-0.47,0.11c-0.13,0.15-0.35,0.49-0.35,0.78
		c0,0.11,0.03,0.21,0.1,0.29c0.07,0.09,0.19,0.17,0.38,0.22c0.34,0.1,0.68,0.2,0.96,0.29c-0.12-0.37-0.19-0.75-0.19-1.12
		C709.11,19.71,709.11,19.64,709.12,19.57L709.12,19.57z M710.86,15.42c0.04,0,0.07-0.01,0.11-0.01c0.19,0,0.33,0.06,0.44,0.13
		c-0.05-0.48-0.23-0.76-0.43-0.93c-0.23-0.18-0.5-0.22-0.71-0.22c-0.05,0-0.09,0-0.14,0c0.05,0.04,0.1,0.07,0.16,0.12
		C710.71,14.84,710.83,15.21,710.86,15.42L710.86,15.42z M709.88,16.8c0.04,0.16,0.09,0.32,0.14,0.48c0.01,0.04,0.18,0.49,0.17,0.5
		c0.02-0.01,0.04-0.03,0.07-0.04c0,0,0.01-0.01,0.01-0.01c0.17-0.09,0.33-0.14,0.48-0.14c0.08,0,0.15,0.02,0.22,0.04
		c0.05-0.13,0.12-0.31,0.18-0.49c0.07-0.21,0.14-0.42,0.15-0.52c0.01-0.07,0.02-0.17,0.02-0.26c0-0.13-0.02-0.26-0.07-0.35
		c-0.05-0.09-0.13-0.14-0.28-0.15c-0.06,0-0.14,0.01-0.22,0.03c-0.27,0.07-0.63,0.16-0.8,0.4C709.84,16.44,709.86,16.62,709.88,16.8
		L709.88,16.8L709.88,16.8z M714.42,17.3c0.26-0.34,0.35-0.63,0.35-0.87c0-0.28-0.12-0.5-0.26-0.66c-0.08-0.1-0.17-0.17-0.24-0.22
		c0.01,0.05,0.03,0.12,0.04,0.19c0.02,0.12,0.03,0.23,0.03,0.33c0,0.42-0.17,0.68-0.27,0.8C714.2,16.97,714.33,17.11,714.42,17.3
		L714.42,17.3z M723.09,15.56l0-0.03c0-0.12,0.11-0.31,0.18-0.41c0.1-0.16,0.3-0.32,0.21-0.53c-0.05-0.12-0.2-0.19-0.2-0.34
		c0-0.07,0.04-0.13,0.12-0.19c0.08-0.06,0.18-0.1,0.29-0.13c0.34-0.1,1.38-0.47,1.39-0.47c0.1-0.1,0.13-0.19,0.26-0.3
		c0.12-0.11,0.34-0.23,0.77-0.31c1.09-0.22,4.07-0.41,4.36-0.43c0.09,0,0.2,0.05,0.33,0.15c0.18,0.14,0.39,0.36,0.54,0.55
		c0.08,0.09,0.14,0.17,0.19,0.23c0.05,0.06,0.07,0.1,0.07,0.1l0.04,0.06l0.05-0.04c0-0.01,0.05-0.03,0.11-0.05
		c0.06-0.02,0.15-0.03,0.23-0.03c0.12,0,0.26,0.03,0.38,0.12c0.12,0.09,0.23,0.23,0.29,0.48c0.03,0.13,0.05,0.25,0.05,0.38
		c0,0.72-0.49,1.43-0.81,1.81l-0.03,0.04l0.03,0.04c1.11,1.64,1.31,3.14,1.31,3.64c-0.13-0.2-0.35-0.51-0.35-0.52
		c0,0-0.03-0.05-0.08-0.1c-0.05-0.05-0.11-0.11-0.19-0.14c-0.03-0.01-0.05-0.01-0.08-0.01c-0.05,0-0.11,0.02-0.15,0.06
		c-0.04,0.04-0.06,0.1-0.06,0.17c0,0.06,0.02,0.13,0.05,0.21c0.49,1.41,0.57,2.92,0.57,3.74c0,0.03,0,0.05,0,0.07
		c-0.19-0.31-0.48-0.77-0.48-0.78c-0.09-0.16-0.19-0.24-0.29-0.24c-0.06,0-0.11,0.03-0.14,0.07c-0.03,0.04-0.05,0.09-0.05,0.15
		c0,0.04,0.01,0.08,0.02,0.11c0.25,0.66,0.34,1.3,0.34,1.87c0,0.77-0.16,1.43-0.32,1.9c-0.08,0.24-0.16,0.42-0.22,0.55
		c-0.02,0.04-0.03,0.07-0.05,0.1c-0.04-0.07-0.09-0.15-0.15-0.26c-0.11-0.2-0.25-0.45-0.32-0.64c-0.04-0.09-0.08-0.16-0.12-0.21
		c-0.05-0.05-0.1-0.08-0.16-0.08c-0.06,0-0.12,0.04-0.15,0.09c-0.03,0.05-0.04,0.12-0.04,0.2c0,0.03,0,0.06,0.01,0.09
		c0.01,0.15,0.02,0.29,0.02,0.43c0,1.32-0.52,2.23-1.03,2.82c-0.26,0.3-0.52,0.51-0.71,0.65c-0.09,0.07-0.17,0.12-0.23,0.15
		c0-0.35,0-1.44-0.01-1.85c0-0.08-0.02-0.16-0.06-0.21c-0.04-0.06-0.09-0.1-0.17-0.1c-0.04,0-0.08,0.02-0.12,0.05
		c-0.03,0.03-0.06,0.07-0.08,0.13c-0.37,0.86-0.74,1.36-1.07,1.64c-0.33,0.28-0.61,0.34-0.81,0.34c-0.1,0-0.18-0.02-0.23-0.03
		c0.03-0.08,0.11-0.2,0.18-0.36c0.11-0.25,0.24-0.56,0.24-0.86c0-0.21-0.06-0.41-0.23-0.55c-0.17-0.15-0.43-0.23-0.81-0.23
		c-0.12,0-0.24,0.01-0.38,0.02c-0.89,0.1-2.15,0.66-3.19,1.2c-0.88,0.45-1.6,0.88-1.81,1.01c-0.21-0.44-0.29-0.84-0.29-1.19
		c0-0.51,0.16-0.93,0.32-1.22c0.08-0.14,0.16-0.26,0.22-0.33c0.03-0.04,0.06-0.07,0.07-0.08l0.03-0.03c0,0,0.03-0.04,0.07-0.08
		c0.03-0.05,0.07-0.11,0.07-0.19c0-0.05-0.02-0.1-0.07-0.13c-0.05-0.04-0.11-0.05-0.19-0.05c-0.45,0.05-0.79,0.21-1.04,0.37
		c-0.18,0.11-0.32,0.23-0.42,0.32c0.06-1.41,0.58-2.32,1.13-2.91c0.57-0.6,1.16-0.85,1.31-0.91c0.11-0.05,0.19-0.09,0.24-0.15
		c0.05-0.05,0.07-0.11,0.07-0.16c0-0.03-0.01-0.06-0.01-0.08c-0.01-0.05-0.04-0.08-0.08-0.1c-0.09-0.06-0.21-0.07-0.22-0.08
		c0,0-0.32-0.07-0.64-0.14c-0.16-0.04-0.32-0.07-0.44-0.1c-0.04-0.01-0.08-0.02-0.11-0.03c0.94-1.17,2.27-1.36,3.01-1.36
		c0.16,0,0.3,0.01,0.39,0.02c0.04,0.01,0.08,0.01,0.1,0.01c0.02,0,0.04,0.01,0.04,0.01c0.05,0.01,0.1,0.01,0.15,0.01
		c0.12,0,0.2-0.02,0.27-0.07c0.06-0.04,0.1-0.11,0.1-0.17c-0.01-0.09-0.05-0.13-0.09-0.16c-0.04-0.03-0.07-0.05-0.07-0.05
		c0,0-0.03-0.01-0.03-0.01c-0.05-0.03-0.2-0.11-0.54-0.3c-0.12-0.07-0.18-0.12-0.22-0.17c-0.04-0.04-0.04-0.07-0.04-0.09l0.01-0.03
		c0.06,0,0.22,0.01,0.39,0.03c0.22,0.02,0.48,0.04,0.58,0.07c0.35,0.13,0.64,0.18,0.9,0.18c0.5,0,0.84-0.2,1.08-0.44
		c0.23-0.23,0.36-0.5,0.43-0.63c0.07-0.12,0.1-0.24,0.1-0.35c0-0.21-0.12-0.39-0.3-0.42c-0.1-0.02-0.28-0.06-0.48-0.06
		c-0.23,0-0.5,0.05-0.7,0.26c-0.14,0.14-0.25,0.18-0.33,0.18c-0.04,0-0.08-0.01-0.11-0.02l-0.03-0.02c-0.01,0-0.46-0.42-0.46-0.42
		c-0.19-0.05-0.29-0.1-0.36-0.14c-0.06-0.04-0.07-0.07-0.07-0.08l0.02-0.04c0.02-0.02,0.04-0.04,0.07-0.05
		c0.25-0.15,0.39-0.19,0.59-0.19c0.22,0,0.52,0.05,1.06,0.05c0.09,0,0.18,0,0.29,0c0.39-0.01,0.65-0.14,0.79-0.32
		c0.15-0.18,0.19-0.4,0.19-0.59c0-0.25-0.07-0.45-0.07-0.46c0,0-0.28-0.77-0.81-1.66c-0.15-0.25-0.36-0.35-0.57-0.35
		c-0.29,0-0.58,0.17-0.81,0.34c-0.21,0.16-0.36,0.32-0.38,0.33c-0.19,0.17-0.38,0.24-0.55,0.24c-0.2,0-0.38-0.09-0.52-0.22
		C723.21,15.92,723.11,15.74,723.09,15.56L723.09,15.56z M725.96,14.04c0.14,0.06,0.28,0.15,0.4,0.24c0,0,0.04,0.03,0.04,0.03
		l0.04-0.03c0,0,0.17-0.14,0.34-0.29c0.07-0.07,0.37-0.25,0.35-0.37c-0.03-0.19-0.85,0.03-0.97,0.07c-0.12,0.04-0.21,0.07-0.28,0.11
		c-0.03,0.02-0.06,0.03-0.09,0.05l-0.03,0.03C725.64,13.98,725.91,14.02,725.96,14.04L725.96,14.04z M711.38,18.32
		c0.2,0.74,0.91,2.39,1.25,3.17c0.11,0.25,0.18,0.41,0.18,0.42c0,0.01,0.18,0.38,0.18,0.8c0,0.2-0.04,0.41-0.17,0.6
		c-0.17,0.25-0.31,0.43-0.32,0.43l0,0l0,0h0l0,0.01l-0.02,0.02c-0.01,0.02-0.03,0.05-0.05,0.08c-0.04,0.07-0.07,0.18-0.07,0.31
		c0,0.13,0.03,0.29,0.14,0.48c0,0,0.13,0.23,0.29,0.5c0.16,0.27,0.34,0.58,0.44,0.72c0.04,0.05,0.08,0.11,0.11,0.15
		c0.03,0.04,0.07,0.07,0.08,0.07l0.01-0.03c0.01-0.04,0.02-0.13,0.02-0.26c0-0.02,0-0.05,0-0.07v-0.04c0-0.16,0.02-0.39,0.03-0.53
		c0.01-0.14,0.12-0.22,0.24-0.22c0.09,0,0.19,0.06,0.21,0.17c0.03,0.12,0.07,0.34,0.15,0.57v0c0,0,0.01,0.02,0.02,0.07
		c0.02,0.04,0.04,0.11,0.08,0.18c0.07,0.16,0.18,0.37,0.33,0.6c0.28,0.43,0.7,0.91,1.28,1.15c0-0.07,0-0.14,0-0.2
		c0-0.28-0.02-0.5-0.02-0.57c0-0.01,0-0.04,0-0.06c0-0.03,0-0.07,0.02-0.11c0.02-0.04,0.06-0.08,0.12-0.08h0h0l0.01,0
		c0.05,0,0.08,0.02,0.11,0.04c0.03,0.02,0.06,0.05,0.09,0.08c0.03,0.03,0.05,0.06,0.07,0.08h0l0.02,0.03c0,0,0.03,0.05,0.08,0.13
		c0.06,0.08,0.14,0.2,0.24,0.34c0.2,0.28,0.49,0.66,0.83,1.04c0.62,0.69,1.41,1.39,2.13,1.55c-0.04-0.2-0.07-0.4-0.07-0.6
		c0-0.4,0.08-0.79,0.23-1.16c-0.08,0.06-0.15,0.11-0.21,0.17l-1.02,0.85l0.05-1.32c0.06-1.33,0.49-2.43,1.28-3.28
		c0.24-0.26,0.52-0.49,0.81-0.68c-0.11-0.03-0.22-0.05-0.3-0.07c-0.05-0.01-0.1-0.03-0.13-0.04l-0.29-0.08
		c-1.74-0.24-4.29-1.01-6.69-3.28c-0.29-0.25-0.58-0.72-0.58-1.23c0-0.26,0.08-0.54,0.29-0.79c0.2-0.25,0.52-0.48,1-0.65l0,0h0
		l0.01,0l0.02-0.01l0.06-0.03c0.04-0.03,0.08-0.07,0.08-0.13c0-0.08-0.07-0.24-0.38-0.48c-0.39-0.3-0.67-0.52-0.86-0.66
		c-0.19-0.14-0.27-0.2-0.27-0.2l-0.01-0.01l0,0l-0.02,0c-0.03,0-0.1,0.01-0.22,0.14c-0.22,0.21-0.96,0.83-0.96,1.61
		C711.33,18.08,711.34,18.2,711.38,18.32L711.38,18.32z M714.07,31.64l0-0.01l0.01-0.05c0-0.06-0.02-0.17-0.18-0.31
		c-0.13-0.12-0.28-0.24-0.4-0.33c-0.1-0.08-0.17-0.13-0.19-0.15l-0.01,0c-0.02,0-0.04-0.01-0.06-0.01c-0.05,0-0.12,0.01-0.21,0.07
		c-0.02,0.01-0.05,0.03-0.1,0.05c-0.05,0.03-0.12,0.06-0.19,0.11c-0.14,0.08-0.33,0.19-0.52,0.33c0.03,0.04,0.07,0.09,0.11,0.13
		c0.24,0.28,0.59,0.61,1.03,0.83c0.19,0.09,0.39,0.16,0.61,0.2c-0.02-0.09-0.03-0.17-0.03-0.25
		C713.94,31.92,714.06,31.66,714.07,31.64L714.07,31.64L714.07,31.64z M710.95,31.52c-0.36,0-0.63,0.15-0.83,0.31
		c-0.11,0.09-0.2,0.18-0.26,0.26c0.04-0.02,0.08-0.03,0.12-0.05c0.2-0.08,0.39-0.11,0.56-0.11c0.16,0,0.3,0.03,0.43,0.06
		c0.09-0.14,0.2-0.28,0.34-0.43C711.18,31.54,711.06,31.52,710.95,31.52L710.95,31.52z M713.38,29.58
		c-0.22-0.14-0.46-0.19-0.63-0.21c0.03,0.02,0.07,0.05,0.11,0.08c0.45,0.34,0.56,0.73,0.58,0.94c0.03,0.01,0.05,0.02,0.07,0.02
		l0.04,0.02l0.01,0.01l0.03,0.02l0,0c0.01,0.01,0.22,0.17,0.45,0.36C713.99,30.13,713.7,29.77,713.38,29.58L713.38,29.58z
		 M760.25,32.91l0.03,0.01c0.07-0.07,0.15-0.16,0.27-0.28c0.04-0.05,0.09-0.09,0.14-0.13c-0.24-0.11-0.45-0.15-0.64-0.15
		c-0.34,0-0.61,0.14-0.81,0.29c-0.1,0.08-0.19,0.17-0.25,0.24c0.04-0.02,0.08-0.03,0.12-0.05c0.2-0.07,0.38-0.1,0.54-0.1
		C759.93,32.75,760.14,32.84,760.25,32.91L760.25,32.91L760.25,32.91z M760.17,33.86c0,0.26,0.18,0.57,0.34,0.76
		c0.12,0.14,0.29,0.17,0.47,0.21c0.19,0.04,0.38,0.09,0.58,0.08c0.16-0.01,0.57-0.08,0.39-0.29c-0.09-0.11-0.18-0.2-0.25-0.33
		c-0.07-0.14-0.13-0.3-0.19-0.45c-0.08-0.21-0.13-0.44-0.17-0.67c-0.01-0.07-0.04-0.17-0.09-0.24c-0.05-0.08-0.11-0.12-0.17-0.12
		c-0.05,0-0.13,0.03-0.22,0.13c-0.36,0.39-0.44,0.46-0.57,0.61C760.21,33.64,760.17,33.74,760.17,33.86L760.17,33.86z M758.51,35.98
		c-0.15,0.27-0.19,0.55-0.19,0.75v0.02c0.02-0.04,0.04-0.07,0.06-0.11c0.28-0.51,0.66-0.66,0.87-0.71
		c-0.01-0.07-0.02-0.15-0.02-0.23c0-0.1,0.01-0.2,0.04-0.31c0-0.01,0.01-0.02,0.01-0.03C758.88,35.51,758.65,35.74,758.51,35.98
		L758.51,35.98z M738.55,32.11c0.1,0,0.19,0,0.28,0c0.07,0,0.13,0,0.18,0h0h0.02c0.04,0,0.08,0.01,0.12,0.01
		c-0.14-0.43-0.36-0.68-0.6-0.83c-0.26-0.16-0.54-0.21-0.76-0.21c-0.06,0-0.12,0.01-0.17,0.01c0.04,0.01,0.07,0.03,0.12,0.05
		c0.55,0.25,0.73,0.64,0.79,0.84v0L738.55,32.11L738.55,32.11z M761.74,37c-0.05-0.04-0.09-0.09-0.12-0.14
		c-0.19,0.3-0.26,0.57-0.26,0.81c0,0.46,0.25,0.8,0.43,0.99c-0.01-0.04-0.02-0.08-0.03-0.13c-0.04-0.15-0.05-0.29-0.05-0.41
		c0-0.36,0.13-0.6,0.22-0.72l0,0l0.08-0.11c-0.01-0.02-0.02-0.03-0.03-0.04C761.9,37.16,761.82,37.07,761.74,37L761.74,37z
		 M764.92,37.12L764.92,37.12l-0.02-0.11l-0.39,0.01h0h-0.01c-0.04,0-0.1,0-0.18-0.02c0.13,0.45,0.36,0.71,0.62,0.86
		c0.27,0.16,0.57,0.2,0.78,0.2c0.02,0,0.03,0,0.05,0c-0.04-0.02-0.07-0.04-0.11-0.06C765.11,37.71,764.96,37.31,764.92,37.12
		L764.92,37.12z M712.84,36.24c-0.32,0.31-0.41,0.66-0.41,0.96c0,0.16,0.03,0.31,0.06,0.42c0.01-0.04,0.02-0.08,0.03-0.13
		c0.11-0.41,0.36-0.67,0.57-0.83c-0.05-0.09-0.11-0.19-0.17-0.27C712.89,36.34,712.87,36.29,712.84,36.24L712.84,36.24z
		 M734.6,32.55c-0.37,0-0.68,0.17-0.86,0.3c0.04-0.01,0.08-0.01,0.13-0.02c0.07-0.01,0.13-0.01,0.19-0.01
		c0.21,0,0.38,0.04,0.51,0.09c0.1-0.13,0.22-0.24,0.33-0.32C734.8,32.57,734.7,32.55,734.6,32.55L734.6,32.55z M735.09,34.3
		c0,0.02,0,0.05,0,0.07c0.01,0.06,0.02,0.08,0.08,0.12c0.06,0.03,0.19,0.06,0.4,0.09c0.1,0.01,0.2,0.02,0.28,0.02
		c0.14,0,0.24-0.02,0.31-0.04c0.02-0.07,0.04-0.14,0.07-0.22c0.05-0.15,0.1-0.31,0.13-0.43c0.03-0.13,0.03-0.26,0.03-0.39
		c0-0.08,0.01-0.16,0.02-0.25c-0.15-0.14-0.39-0.37-0.5-0.45c-0.07-0.06-0.16-0.11-0.28-0.11c-0.08,0-0.18,0.03-0.3,0.11
		c-0.12,0.08-0.24,0.16-0.33,0.25c-0.09,0.09-0.14,0.17-0.14,0.27c0,0.06,0.02,0.12,0.07,0.19c0.14,0.22,0.17,0.4,0.17,0.55
		C735.1,34.17,735.09,34.24,735.09,34.3L735.09,34.3z M765.79,35.03c-0.07-0.1-0.1-0.22-0.1-0.35c0-0.3,0.19-0.53,0.34-0.76
		c0.02-0.03,0.04-0.06,0.06-0.09c0.14-0.24,0.21-0.5,0.21-0.78c0-0.39-0.13-0.88-0.63-1.38c-0.01-0.01-0.1-0.12-0.1-0.39
		c0-0.2,0.05-0.5,0.21-0.92c0.15-0.38,0.31-0.71,0.31-1.05c0-0.17-0.04-0.34-0.13-0.52c-0.07,0.29-0.15,0.92-0.56,0.91
		c-0.3-0.01-0.28-0.38-0.24-0.59c0.01-0.05,0.02-0.11,0.03-0.2c0.02-0.16,0.04-0.39,0.04-0.65c0-0.37-0.05-0.8-0.19-1.19
		c-0.07,0.27-0.13,0.45-0.23,0.56c-0.04,0.04-0.1,0.07-0.17,0.07c-0.08,0-0.15-0.04-0.2-0.1c-0.05-0.06-0.08-0.13-0.1-0.19
		c-0.04-0.13-0.05-0.25-0.06-0.27c0-0.01-0.06-0.32-0.14-0.68c-0.07-0.34-0.18-0.72-0.27-0.91c-0.02,0.13-0.05,0.28-0.08,0.41
		c-0.04,0.18-0.08,0.46-0.3,0.51c-0.16,0.03-0.21-0.13-0.24-0.25c-0.04-0.17-0.07-0.33-0.11-0.5c-0.07-0.26-0.16-0.58-0.25-0.81
		c-0.05-0.14-0.11-0.24-0.16-0.28c-0.01,0.03-0.03,0.06-0.05,0.1c-0.05,0.1-0.12,0.24-0.21,0.39c-0.18,0.3-0.45,0.67-0.8,0.92
		c-0.69,0.52-1.23,0.57-1.67,0.57c-0.69,0-1.84-0.22-2.83-0.87c-0.56-0.37-1.55-0.94-2.16-1.4l-0.17-0.13l0.21,0.01
		c0.21,0.01,0.43,0.02,0.66,0.02c0.97,0,2.01-0.11,2.71-0.45c0.86-0.42,1.29-0.96,1.68-1.5c0.4-0.54,0.77-1.08,1.52-1.49
		c0.46-0.25,0.94-0.33,1.38-0.33c0.52,0,0.96,0.11,1.16,0.18c-0.18-0.68-0.98-1.27-1.95-1.26c-0.7,0-1.48,0.3-2.18,1.08l-0.11,0.12
		l0-0.17v-0.03c0-0.02,0-0.05-0.01-0.08c-0.01-0.07-0.02-0.18-0.06-0.3c-0.06-0.25-0.18-0.59-0.42-0.92
		c-0.48-0.67-1.43-1.34-3.33-1.34c-0.15,0-0.31,0.01-0.47,0.01c-1.55,0.08-4.49,1.01-7.18,1.54c-2.63,0.51-6.52,0.75-8.18,0.75
		c-0.62,0-1.24-0.06-1.78-0.18c-0.54-0.13-0.99-0.34-1.27-0.65c-0.19-0.21-0.3-0.46-0.3-0.77c0-0.6,0.32-0.95,0.74-1.14
		c0.41-0.19,0.92-0.23,1.32-0.23c1.28,0,3.04,0.79,4.46,1.31c1,0.37,1.99,0.38,2.54,0.38c1.46,0,3.33-0.78,4.26-1.17
		c0.74-0.31,1.37-0.53,2.48-0.53c0.26,0,0.55,0.01,0.86,0.04c-0.39-0.43-1.27-0.89-2.4-0.89c-0.73,0-1.56,0.19-2.44,0.68l-0.06,0.03
		l-0.03-0.06c-0.04-0.08-0.06-0.17-0.06-0.26c0-0.23,0.12-0.49,0.34-0.73c0.19-0.21,0.47-0.4,0.8-0.54
		c-0.21-0.11-0.57-0.24-1.03-0.35c-0.54-0.12-1.23-0.22-1.99-0.22c-0.08,0-0.17,0-0.25,0c-1.23,0.03-2.05,0.34-2.86,0.65
		c-0.81,0.31-1.61,0.61-2.76,0.61c-0.1,0-0.21,0-0.31-0.01c-0.23-0.01-0.47-0.02-0.7-0.02c-1.11,0-2.14,0.13-2.87,0.49
		c-0.74,0.36-1.19,0.92-1.19,1.81c0,0.76,0.44,1.4,1.26,1.86c0.82,0.45,2.01,0.72,3.47,0.72c0.03,0,0.06,0,0.09,0
		c3.69-0.03,8.1-0.89,10.79-1.34c0.89-0.15,2.78-0.66,4.39-0.66c0.73,0,1.41,0.11,1.92,0.41c0.51,0.3,0.83,0.82,0.82,1.59
		c0,0.39-0.09,0.86-0.42,1.24c-0.33,0.38-0.91,0.66-1.85,0.66c-1.09,0-2.33-0.31-3.81-0.53l-0.12-0.02c-0.31-0.05-0.65-0.09-1-0.13
		c-2.18-0.26-4.98-0.46-6.56-0.46c-0.15,0-0.29,0-0.42,0.01c-1.21,0.04-3.53,0.18-5.71,0.53c-2.27,0.36-4.39,0.86-5.06,1.02v0.08
		l-0.02,2.08l-0.58-0.95c0,0.04,0,0.08,0,0.12c0,0.88-0.19,1.62-0.35,2.09c-0.1,0.27-0.19,0.48-0.25,0.61
		c-0.02,0.05-0.04,0.08-0.06,0.11l-0.48,0.92l-0.44-0.74c-0.15,0.89-0.52,1.7-1.11,2.37c-0.13,0.15-0.43,0.43-0.74,0.68
		c-0.03,0.02-0.05,0.04-0.07,0.06c-0.11,0.08-0.2,0.14-0.26,0.18l-0.88,0.53v-1.56c-0.18,0.24-0.36,0.45-0.55,0.61
		c-0.38,0.32-0.78,0.48-1.19,0.48c-0.14,0-0.27-0.02-0.4-0.06l-0.73-0.23l0.4-0.64c0.03-0.05,0.1-0.16,0.16-0.3
		c0.15-0.31,0.18-0.5,0.18-0.61c0-0.03,0-0.09-0.03-0.11c-0.05-0.04-0.19-0.09-0.43-0.09c-0.1,0-0.2,0.01-0.31,0.02
		c-0.46,0.05-1.34,0.29-3,1.14c-0.86,0.44-1.69,0.93-2.51,1.44c-0.52,0.32-1.05,0.62-1.59,0.91c-0.78,0.42-1.6,0.77-2.47,0.92
		c-0.24,0.04-0.48,0.06-0.73,0.06c-0.38,0-0.7-0.1-0.92-0.35c-0.38-0.02-0.72-0.13-1.03-0.28c-0.34-0.17-0.63-0.39-0.87-0.62
		c-0.17-0.16-0.31-0.32-0.42-0.47c-0.42,0.38-0.8,0.88-0.85,1.49c-0.01,0.15-0.02,0.3-0.02,0.46c0,0.08,0,0.16,0.01,0.24
		c0.08,0,0.15,0,0.23,0c1.7,0,2.64-0.27,2.69-0.28l0.06-0.01c0.1,0,0.19,0.07,0.22,0.16l0.01,0.06c0,0.1-0.06,0.19-0.16,0.22
		c-0.02,0.01-1,0.3-2.81,0.3c-0.06,0-0.13,0-0.19,0c0.05,0.48,0.17,0.93,0.38,1.23c0.26,0.4,0.64,0.51,0.8,0.51
		c0,0,0.05,0,0.05-0.01c1.38-0.96,2.28-1.27,2.31-1.28c0.03-0.01,0.05-0.01,0.07-0.01c0.09,0,0.18,0.06,0.22,0.15
		c0.01,0.02,0.01,0.05,0.01,0.07c0,0.09-0.06,0.18-0.16,0.22l-0.04,0.02c-0.04,0.01-0.09,0.04-0.17,0.07
		c-0.15,0.06-0.37,0.17-0.65,0.32c-0.18,0.1-0.39,0.21-0.61,0.35c-0.01,0.01-0.02,0.03-0.02,0.06c0,0.04,0.01,0.09,0.07,0.17
		c0.2,0.3,0.42,0.69,0.57,0.9c0.11,0.16,0.32,0.33,0.56,0.33c0.23,0,0.53-0.15,0.87-0.63c0.22-0.26,0.47-0.49,0.99-0.5l1.25-0.07
		l0.02,0c0.01,0,0.03,0,0.06-0.01c0.05-0.01,0.13-0.03,0.21-0.05c0.17-0.06,0.36-0.16,0.49-0.35c0.09-0.12,0.17-0.21,0.27-0.27
		c0.1-0.06,0.21-0.09,0.33-0.09c0.21,0,0.46,0.07,0.83,0.16c0.53,0.13,0.95,0.22,1.22,0.22c0.09,0,0.16-0.01,0.21-0.03
		c-0.04-0.04-0.09-0.08-0.14-0.14c-0.11-0.11-0.25-0.25-0.35-0.38c-0.06-0.09-0.11-0.18-0.11-0.27c0-0.05,0.01-0.1,0.05-0.13
		c0.08-0.08,0.16-0.11,0.23-0.11c0.09,0,0.15,0.04,0.21,0.08c0.05,0.04,0.09,0.08,0.12,0.1c0.52,0.38,1.49,0.62,2.28,0.62
		c0.22,0,0.43-0.02,0.6-0.06c-0.13-0.08-0.33-0.2-0.46-0.34c-0.07-0.08-0.12-0.15-0.13-0.25c0-0.05,0.02-0.11,0.07-0.15
		c0.07-0.06,0.15-0.06,0.25-0.06c0.23,0,0.54,0.07,0.54,0.07c0,0,0.05,0.01,0.14,0.03c0.09,0.02,0.21,0.04,0.36,0.07
		c0.3,0.05,0.69,0.1,1.07,0.1c0.41,0,0.8-0.06,1.02-0.23c-0.4-0.37-0.68-0.65-0.68-0.65c-0.01-0.01-0.1-0.09-0.1-0.21
		c0-0.05,0.02-0.11,0.06-0.17c0.05-0.07,0.13-0.09,0.2-0.09c0.16,0,0.3,0.08,0.33,0.1c0.01,0,0.07,0.03,0.17,0.06
		c0.11,0.04,0.26,0.08,0.45,0.13c0.37,0.1,0.85,0.19,1.31,0.19c0.39,0,0.74-0.08,1-0.26c-0.31-0.13-0.48-0.3-0.49-0.31
		c0,0-0.07-0.08-0.08-0.2c0-0.04,0.01-0.09,0.04-0.13c0.04-0.07,0.1-0.11,0.16-0.13c0.06-0.02,0.13-0.03,0.18-0.03
		c0.03,0,0.07,0,0.09,0c0.14,0.02,0.28,0.02,0.4,0.02c0.74,0,1.15-0.21,1.29-0.29l-0.76-0.92c0.09-0.04,0.29-0.15,0.32-0.16
		c0.09-0.04,0.22-0.13,0.36-0.16c0.29-0.07,0.69-0.18,1.19-0.34c0.99-0.31,2.32-0.82,3.68-1.57c2.67-1.47,5.3-3.3,7.9-3.92
		c0.64-0.15,1.29-0.21,1.89-0.21c0.71,0,1.36,0.08,1.85,0.18c0.47,0.1,1.03,0.53,1.62,1.09c0.58,0.55,1.19,1.22,1.71,1.79
		c0.61,0.66,1.12,1.13,1.35,1.33c0.07,0.07,0.11,0.1,0.11,0.1c0.01,0,0.08,0.06,0.21,0.15c0.13,0.09,0.32,0.22,0.54,0.35
		c0.41,0.24,0.93,0.5,1.39,0.59c-0.02-0.15-0.24-1.12,0.2-0.92c0.17,0.08,0.28,0.27,0.41,0.4c0.17,0.16,0.35,0.32,0.55,0.45
		c0.32,0.22,0.67,0.38,0.98,0.38c0.1,0,0.2-0.03,0.29-0.07c-0.2-0.23-0.35-0.42-0.35-0.42c0-0.01-0.06-0.07-0.06-0.16
		c0-0.06,0.04-0.13,0.11-0.17c0.07-0.04,0.18-0.06,0.34-0.06c0.06,0,0.12,0,0.19,0.01c0.13,0.01,0.33,0.02,0.58,0.02
		c0.45,0,1.05-0.03,1.58-0.12c0.73-0.13,1.37-0.34,1.65-0.44c0.09-0.03,0.14-0.05,0.14-0.05c0,0,0.19-0.08,0.4-0.08
		c0.11,0,0.23,0.02,0.34,0.09c0.15,0.1,0.25,0.28,0.34,0.46c0.08,0.18,0.15,0.36,0.2,0.47c0.23,0.52,0.66,1.12,0.66,2.12
		c0,0.15-0.01,0.3-0.03,0.46c-0.03,0.26-0.1,0.84-0.38,1.24c-0.49,0.68-0.98,0.72-1.03,0.72c-0.02,0-0.11,0.02-0.26,0.02
		c-0.09,0-0.19-0.01-0.3-0.02c-0.35-0.06-0.69-0.21-0.94-0.21c-0.08,0-0.15,0.01-0.21,0.05c-0.28,0.14-0.35,0.34-0.36,0.54
		c0,0.23,0.11,0.45,0.15,0.53l0.01,0.02c0,0.01,0.01,0.03,0.03,0.06c0.02,0.05,0.06,0.12,0.12,0.18c0.11,0.13,0.3,0.26,0.61,0.26
		c0.03,0,0.07,0,0.1,0c0.24-0.02,0.47-0.16,0.65-0.33c0.18-0.16,0.32-0.33,0.37-0.4l0.02-0.03l0.45-0.63c0-0.01,0.02-0.03,0.05-0.06
		c0.03-0.03,0.09-0.06,0.15-0.06c0.04,0,0.07,0.01,0.11,0.03c0.08,0.04,0.11,0.13,0.11,0.19c0,0.05-0.01,0.09-0.02,0.12
		c-0.01,0.03-0.02,0.06-0.04,0.08c-0.01,0.01-0.04,0.06-0.1,0.12c-0.05,0.07-0.12,0.15-0.19,0.24c-0.14,0.17-0.28,0.34-0.28,0.34
		l-0.01,0.02c-0.01,0.02-0.02,0.05-0.02,0.08c0,0.05,0.02,0.12,0.11,0.2c0.13,0.12,0.24,0.25,0.35,0.38
		c0.09,0.11,0.16,0.22,0.29,0.26c0.29,0.09,0.59-0.27,0.77-0.46c0.14-0.15,0.28-0.33,0.34-0.52c0.1-0.29,0.12-0.6,0.12-0.85
		c0-0.15-0.01-0.27-0.02-0.36c-0.01-0.09-0.02-0.14-0.02-0.14c0-0.01-0.01-0.03-0.01-0.07c0-0.04,0.01-0.09,0.04-0.14
		c0.03-0.05,0.09-0.09,0.16-0.1l0.05,0c0.11,0,0.18,0.06,0.2,0.12c0.03,0.06,0.03,0.1,0.03,0.11c0,0,0,0.09,0,0.23
		c0,0.17,0,0.42-0.01,0.66c-0.01,0.23-0.03,0.45-0.07,0.58c-0.01,0.03-0.01,0.06-0.01,0.07c0,0.04,0.01,0.06,0.03,0.07
		c0.02,0.02,0.04,0.03,0.07,0.05c0.06,0.02,0.13,0.02,0.15,0.02c0,0,1.07-0.03,1.07-0.03h0.02c0.05,0,0.18-0.01,0.3-0.08
		c0.12-0.08,0.24-0.21,0.28-0.5c0.01-0.06,0.01-0.11,0.01-0.16c0-0.23-0.06-0.36-0.14-0.47C765.97,35.22,765.87,35.14,765.79,35.03
		L765.79,35.03z M749.83,32.39c-0.22-0.04-0.51-0.11-0.79-0.27c-0.52-0.31-0.88-0.92-0.88-1.4c0-0.5,0.3-1.16,0.74-1.63
		c0.32-0.34,0.68-0.62,0.97-0.83c-0.01,0-1.22-1.24-1.34-1.35c-0.39-0.35-0.82-0.68-1.34-0.82c-0.56-0.15-1.07,0.02-1.57,0.27
		c-0.31,0.15-0.64,0.31-0.93,0.49c-1.21,0.76-1.8,2.12-1.99,2.64c0.05-0.04,0.11-0.09,0.17-0.13c0.19-0.14,0.41-0.3,0.56-0.34
		c0.05-0.01,0.1-0.02,0.14-0.02c0.1,0,0.18,0.04,0.22,0.11c0.04,0.06,0.05,0.13,0.05,0.2c0,0.1-0.03,0.19-0.03,0.2
		c0,0-0.02,0.06-0.05,0.17c-0.04,0.11-0.08,0.26-0.12,0.45c-0.07,0.3-0.14,0.68-0.17,1.05c0.24-0.35,0.48-0.61,0.49-0.62
		c0,0,0.02-0.02,0.05-0.05c0.03-0.02,0.08-0.05,0.14-0.05c0.04,0,0.09,0.02,0.12,0.05c0.03,0.03,0.05,0.06,0.06,0.1
		s0.01,0.08,0.01,0.14c0,0.46-0.1,0.93,0.14,1.35c0.21,0.37,0.34,0.67,0.14,1.09c-0.16,0.34-0.52,0.65-0.83,0.86
		c-0.19,0.13-0.4,0.21-0.7,0.24c-0.26,0.03-0.66,0-1.03,0.12c-0.45,0.14-0.81,0.5-1.27,0.61c-0.13,0.03-0.28,0.04-0.43,0.04
		c-0.53,0-1.15-0.17-1.53-0.57c-0.19-0.21-0.26-0.43-0.26-0.65c0-0.57,0.48-1.05,0.52-1.1l0.02-0.04c0.02-0.03,0.03-0.07,0.03-0.1
		l-0.02-0.04c-0.01-0.01-0.04-0.02-0.12-0.02c-0.05,0-0.12,0-0.19,0c-0.44,0-1.18-0.02-1.18-0.02c-0.01,0-0.29,0.01-0.49,0.17
		l-0.02,0.03c-0.02,0.02-0.04,0.05-0.07,0.09c-0.05,0.08-0.12,0.19-0.17,0.32c-0.07,0.2-0.02,0.48-0.09,0.85
		c-0.07,0.34-0.25,0.74-0.28,1.01c-0.01,0.05-0.01,0.1-0.01,0.15c0,0.39,0.16,0.69,0.29,0.86c0.46,0.63,1.29,1.02,2.09,1.27
		c0.8,0.24,1.55,0.33,1.85,0.36c0.06,0.01,0.1,0.01,0.12,0.01c0.11-0.03,1.34-0.36,1.77-0.44c0.41-0.08,1.46-0.2,1.91-0.26
		c0,0-0.67-0.34-0.67-0.34c0,0-0.04-0.02-0.09-0.06c-0.04-0.04-0.09-0.1-0.09-0.19c0-0.03,0.01-0.07,0.02-0.1
		c0.03-0.06,0.08-0.1,0.13-0.13c0.05-0.02,0.1-0.03,0.15-0.03c0.07,0,0.11,0.01,0.13,0.01c0.02,0,0.18,0.02,0.43,0.03
		c0.26,0.02,0.61,0.03,0.95,0.03c0.27,0,0.53-0.01,0.76-0.04c0.55-0.06,0.85-0.31,0.98-0.43c-0.03-0.01-0.06-0.01-0.1-0.02
		c-0.11-0.03-0.24-0.06-0.31-0.09c-0.09-0.04-0.25-0.12-0.34-0.17c-0.03-0.02-0.07-0.05-0.11-0.09c-0.03-0.04-0.07-0.1-0.07-0.17
		c0,0,0-0.03,0-0.03c0.01-0.05,0.04-0.09,0.07-0.12c0.03-0.03,0.07-0.04,0.11-0.06c0.07-0.03,0.14-0.04,0.15-0.04
		c0,0,0.21-0.02,0.48-0.07c0.28-0.05,0.62-0.12,0.87-0.21c0.36-0.13,0.79-0.43,0.99-0.58c-0.06-0.02-0.14-0.06-0.23-0.1
		c-0.19-0.09-0.41-0.2-0.54-0.35c0,0-0.04-0.04-0.07-0.08c-0.03-0.05-0.08-0.11-0.08-0.19l0.01-0.06c0.02-0.04,0.05-0.07,0.09-0.09
		c0.03-0.02,0.07-0.04,0.11-0.05c0.07-0.02,0.14-0.04,0.14-0.04c0,0,0.06-0.01,0.15-0.03c0.1-0.02,0.23-0.05,0.38-0.09
		c0.3-0.08,0.67-0.19,0.92-0.32c0.15-0.08,0.24-0.16,0.27-0.23c-0.01,0-0.02-0.01-0.04-0.01C750.04,32.43,749.94,32.41,749.83,32.39
		L749.83,32.39z M733.94,35.52c-0.1,0.14-0.17,0.27-0.22,0.39c0.03-0.03,0.06-0.05,0.1-0.08c0.26-0.21,0.51-0.29,0.71-0.32
		c0.02-0.09,0.04-0.17,0.06-0.23l0.01-0.04v0c0.02-0.07,0.05-0.14,0.07-0.2C734.33,35.12,734.1,35.31,733.94,35.52L733.94,35.52z
		 M736.49,36.65c-0.07,0.06-0.13,0.12-0.17,0.16c-0.03,0.03-0.06,0.07-0.09,0.11c-0.03,0.04-0.05,0.09-0.06,0.11
		c-0.01,0.04-0.03,0.11-0.03,0.18c0,0.09,0.02,0.21,0.1,0.33c0.08,0.12,0.22,0.24,0.46,0.35c0.19,0.08,0.35,0.12,0.48,0.12
		c0.25,0,0.41-0.12,0.51-0.27c0.09-0.13,0.14-0.28,0.17-0.38c-0.44-0.2-0.86-0.47-1.18-0.8C736.63,36.56,736.55,36.59,736.49,36.65
		L736.49,36.65z M736.35,36.14c-0.14-0.22-0.29-0.56-0.29-1c0-0.06,0-0.13,0.01-0.19v-0.01c-0.15-0.01-0.35-0.03-0.49-0.03
		c-0.03,0-0.05,0-0.07,0l-0.04,0c-0.04,0-0.09,0-0.12,0c-0.07,0-0.1,0.01-0.15,0.06c-0.05,0.05-0.11,0.16-0.17,0.38
		c-0.03,0.12-0.09,0.3-0.09,0.45c0,0.08,0.02,0.15,0.05,0.2c0.03,0.06,0.08,0.1,0.17,0.14c0.36,0.14,0.62,0.2,0.83,0.2h0.04
		c0.05,0,0.14-0.02,0.21-0.05C736.28,36.26,736.33,36.21,736.35,36.14L736.35,36.14z M735.76,37.37c-0.26,0.32-0.3,0.7-0.29,0.95
		c0,0.01,0,0.02,0,0.03c0.02-0.04,0.04-0.07,0.06-0.12c0.09-0.18,0.2-0.32,0.31-0.42c-0.05-0.11-0.08-0.23-0.08-0.36
		C735.75,37.42,735.76,37.39,735.76,37.37L735.76,37.37z M718.27,17.09c0.33,0.27,0.71,0.46,1.1,0.57c0.39,0.11,0.77,0.14,1.14,0.14
		c0.74-0.01,1.43-0.14,2.11-0.26c0.68-0.12,1.35-0.24,2.03-0.23c0.67,0,1.36,0.16,1.93,0.58c-0.51-0.49-1.21-0.75-1.91-0.85
		c-0.7-0.1-1.41-0.06-2.11-0.03c-0.69,0.03-1.38,0.07-2.02,0c-0.64-0.07-1.22-0.29-1.6-0.71l-0.05-0.05
		c-0.22-0.18-0.54-0.15-0.72,0.08c-0.18,0.23-0.14,0.57,0.08,0.75L718.27,17.09L718.27,17.09z"/>
	<path class="st2" d="M720.11,88.93c0.11-0.61,0.23-1.22,0.37-1.81l0-0.01c1.15,0.64,3.07,0.98,5.26,1.37
		c2.88,0.51,6.3,1.12,8.69,2.53c-0.6-0.24-1.34-0.49-2.26-0.74c-3.05-0.83-4.62-0.76-6.13-0.7
		C724.58,89.64,723.06,89.7,720.11,88.93L720.11,88.93z M754.41,89.78c-3.11,0.66-4.72,0.61-6.28,0.56
		c-1.61-0.06-3.14-0.11-6.26,0.59c-1.15,0.26-2.01,0.51-2.67,0.74c0.74-0.18,1.71-0.35,2.99-0.49c3.28-0.35,4.89-0.11,6.44,0.11
		c1.48,0.22,3.02,0.44,6.06,0.15C754.6,90.88,754.51,90.33,754.41,89.78L754.41,89.78z M739.94,91.01c0.6-0.24,1.34-0.49,2.26-0.74
		c3.06-0.83,4.62-0.76,6.13-0.7c1.47,0.06,2.99,0.12,5.93-0.65c-0.11-0.61-0.23-1.22-0.37-1.81c0,0,0-0.01,0-0.01
		c-1.15,0.64-3.07,0.98-5.26,1.37C745.75,88.99,742.33,89.6,739.94,91.01L739.94,91.01z M726.25,90.33
		c-1.56,0.05-3.17,0.11-6.28-0.56c-0.11,0.55-0.19,1.1-0.28,1.66c3.04,0.29,4.58,0.07,6.06-0.15c1.56-0.23,3.16-0.47,6.44-0.11
		c1.28,0.14,2.25,0.31,2.99,0.49c-0.66-0.23-1.53-0.48-2.68-0.74C729.38,90.23,727.86,90.28,726.25,90.33L726.25,90.33z
		 M723.87,76.76l-3.17,9.54c2.67,1.73,12.49,1.3,16.17,5.67V81.8C735.88,77.46,726.54,78.48,723.87,76.76L723.87,76.76z
		 M750.5,76.76c-2.67,1.73-12.01,0.71-13,5.05v10.16c3.68-4.36,13.5-3.94,16.17-5.67L750.5,76.76L750.5,76.76z"/>
	<path class="st2" d="M706.91,51.29l0.44,0.76c0.17,0.3,0.5,0.49,0.85,0.49h0.02c-0.2,0.39-0.33,0.89-0.36,1.55
		c-0.01,0.12,0,0.24,0,0.37c0,0.32,0.01,0.8-0.11,1.01c-0.05,0.09-0.14,0.19-0.23,0.28c-0.21,0.23-0.55,0.62-0.38,1.14l0,0v0
		c0.17,0.52,0.68,0.63,0.98,0.69c0.13,0.03,0.26,0.05,0.35,0.1c0.22,0.1,0.5,0.49,0.68,0.75c0.08,0.11,0.15,0.21,0.22,0.3
		c0.44,0.56,0.91,0.94,1.41,1.13c-0.38,0.2-0.59,0.64-0.49,1.07l0.18,0.85c0.1,0.45,0.5,0.78,0.96,0.78c0.07,0,0.14-0.01,0.21-0.02
		l0.86-0.18c0.36-0.08,0.64-0.35,0.73-0.68c0.33,0.34,0.78,0.61,1.36,0.82c0.11,0.04,0.23,0.08,0.35,0.12
		c0.3,0.09,0.76,0.24,0.92,0.42c0.07,0.08,0.14,0.19,0.2,0.3c0.16,0.27,0.41,0.72,0.96,0.72v0l0,0l0,0v0c0.55,0,0.81-0.45,0.96-0.72
		c0.06-0.11,0.13-0.23,0.2-0.3c0.16-0.18,0.62-0.32,0.92-0.42c0.12-0.04,0.24-0.08,0.35-0.12c0.67-0.24,1.17-0.58,1.51-0.99
		c0.03,0.16,0.1,0.31,0.2,0.44c0.17,0.2,0.4,0.33,0.66,0.36l0.87,0.09c0.03,0,0.07,0.01,0.1,0.01c0.51,0,0.93-0.38,0.98-0.88
		l0.09-0.87c0.03-0.26-0.05-0.52-0.22-0.72c-0.06-0.07-0.13-0.14-0.2-0.19c0.42-0.21,0.82-0.56,1.2-1.04
		c0.07-0.09,0.14-0.19,0.22-0.3c0.18-0.26,0.46-0.65,0.68-0.75c0.1-0.04,0.23-0.07,0.35-0.1c0.3-0.06,0.81-0.17,0.98-0.69
		l-0.02-0.01l0,0l0.02,0c0.17-0.52-0.18-0.91-0.39-1.14c-0.09-0.1-0.17-0.2-0.23-0.28c-0.12-0.21-0.11-0.69-0.11-1.01
		c0-0.13,0-0.26,0-0.37c-0.03-0.77-0.21-1.33-0.47-1.74c0.04,0.01,0.08,0.01,0.12,0.01c0.39,0,0.74-0.23,0.9-0.59l0.35-0.8
		c0.11-0.24,0.11-0.51,0.02-0.75c-0.1-0.24-0.28-0.44-0.52-0.55l-0.8-0.35c-0.12-0.05-0.26-0.08-0.4-0.08c-0.22,0-0.43,0.07-0.6,0.2
		c-0.07-0.47-0.28-0.96-0.61-1.46c-0.07-0.1-0.14-0.2-0.22-0.3c-0.19-0.25-0.48-0.64-0.5-0.88c-0.01-0.1,0-0.23,0.02-0.36
		c0.03-0.31,0.09-0.82-0.36-1.14l-0.07,0.09l0,0l0.06-0.09c-0.15-0.11-0.34-0.17-0.53-0.17c-0.25,0-0.46,0.09-0.67,0.18
		c-0.12,0.05-0.24,0.11-0.34,0.13c-0.03,0.01-0.06,0.01-0.1,0.01c-0.25,0-0.61-0.12-0.89-0.21c-0.12-0.04-0.24-0.08-0.35-0.11
		c-0.4-0.11-0.78-0.17-1.11-0.17c-0.2,0-0.44,0.02-0.69,0.09c0.07-0.15,0.11-0.31,0.09-0.48c-0.01-0.26-0.13-0.5-0.33-0.68
		l-0.65-0.58c-0.18-0.16-0.41-0.25-0.66-0.25c-0.28,0-0.55,0.12-0.73,0.33l-0.58,0.65c-0.25,0.28-0.31,0.66-0.19,0.98
		c-0.17-0.03-0.33-0.04-0.47-0.04c-0.34,0-0.72,0.06-1.12,0.17c-0.11,0.03-0.23,0.07-0.35,0.11c-0.28,0.1-0.63,0.21-0.89,0.21
		c-0.04,0-0.07,0-0.1-0.01c-0.1-0.02-0.22-0.08-0.34-0.13c-0.2-0.09-0.41-0.18-0.67-0.18c-0.2,0-0.38,0.06-0.53,0.17l0,0h0
		c-0.44,0.33-0.39,0.84-0.36,1.15c0.02,0.13,0.03,0.26,0.02,0.36c-0.03,0.24-0.31,0.62-0.5,0.88c-0.08,0.11-0.15,0.21-0.22,0.3
		c-0.4,0.59-0.61,1.16-0.64,1.69c-0.18-0.17-0.43-0.27-0.68-0.27c-0.17,0-0.34,0.05-0.49,0.13l-0.76,0.44
		c-0.23,0.13-0.39,0.35-0.46,0.6C706.74,50.79,706.77,51.06,706.91,51.29"/>
	<path class="st2" d="M716.95,49.36c0.97,0,1.79,0.69,1.98,1.61c0.09-0.01,0.18-0.02,0.27-0.02c0.88,0,1.65,0.56,1.92,1.4
		c0.3,0.93-0.11,1.92-0.92,2.38c0.18,0.37,0.24,0.78,0.17,1.19c-0.08,0.53-0.37,1-0.81,1.32c-0.35,0.25-0.76,0.39-1.19,0.39
		c-0.51,0-0.99-0.19-1.36-0.53c-0.37,0.35-0.87,0.56-1.4,0.56c-0.43,0-0.84-0.13-1.19-0.39c-0.79-0.57-1.04-1.61-0.65-2.47
		c-0.36-0.19-0.65-0.49-0.84-0.86c-0.24-0.48-0.29-1.03-0.12-1.54c0.27-0.84,1.04-1.4,1.92-1.4c0.07,0,0.15,0,0.23,0.01
		c0.07-0.4,0.26-0.77,0.56-1.07C715.9,49.58,716.41,49.36,716.95,49.36"/>
	<path class="st1" d="M717.21,49.38c0.86,0.11,1.55,0.76,1.72,1.6c0.09-0.01,0.18-0.02,0.27-0.02c0.79,0,1.49,0.45,1.82,1.15
		c0.68-0.18,1.27-0.48,1.63-0.66c1.59-0.79,1.71-1.85,0.87-3.09c-0.25-0.37-0.78-0.96-0.84-1.53c-0.05-0.43,0.12-0.86-0.03-0.97h0
		c-0.15-0.11-0.51,0.18-0.93,0.27c-0.56,0.12-1.28-0.21-1.71-0.33c-1.45-0.41-2.41,0.03-2.67,1.79
		C717.27,47.99,717.17,48.67,717.21,49.38 M716.81,45.65c0.09,0.08,0.23,0.07,0.31-0.02l0.57-0.93c0.08-0.09,0.07-0.23-0.02-0.31
		l-0.65-0.58c-0.09-0.08-0.23-0.07-0.31,0.02l-0.59,0.65c-0.08,0.09-0.07,0.23,0.02,0.31L716.81,45.65L716.81,45.65z M711.34,51.47
		c0.36,0.18,0.93,0.47,1.59,0.65c0.34-0.68,1.03-1.11,1.8-1.11c0.07,0,0.15,0.01,0.23,0.01c0.07-0.4,0.26-0.77,0.56-1.07
		c0.34-0.34,0.78-0.55,1.26-0.58c0.04-0.7-0.07-1.36-0.13-1.77c-0.26-1.76-1.23-2.2-2.67-1.79c-0.43,0.12-1.15,0.45-1.71,0.33
		c-0.42-0.09-0.78-0.38-0.93-0.27c-0.15,0.11,0.01,0.54-0.03,0.97c-0.06,0.57-0.59,1.15-0.84,1.53
		C709.63,49.62,709.74,50.68,711.34,51.47 M707.57,50.9l0.44,0.76c0.06,0.1,0.2,0.14,0.3,0.08l1.02-0.37c0.1-0.06,0.14-0.2,0.08-0.3
		l-0.7-0.83c-0.06-0.11-0.2-0.14-0.3-0.08l-0.76,0.44C707.54,50.66,707.5,50.8,707.57,50.9 M724.67,51.28l1.06,0.25
		c0.11,0.05,0.24,0,0.29-0.11l0.35-0.8c0.05-0.11,0-0.24-0.11-0.29l-0.8-0.35c-0.11-0.05-0.24,0-0.29,0.11l-0.61,0.9
		C724.51,51.1,724.56,51.23,724.67,51.28 M712.46,60.25c-0.03-0.12-0.14-0.2-0.27-0.17l-1,0.41c-0.12,0.03-0.2,0.15-0.17,0.27
		l0.18,0.86c0.03,0.12,0.15,0.2,0.27,0.17l0.85-0.18c0.12-0.03,0.2-0.15,0.17-0.26L712.46,60.25L712.46,60.25z M725.4,54.08
		c-0.06-1.5-0.77-2.29-2.53-1.99c-0.4,0.07-1.06,0.17-1.72,0.42c0.21,0.88-0.2,1.79-0.97,2.22c0.18,0.37,0.24,0.78,0.17,1.19
		c-0.07,0.44-0.28,0.84-0.6,1.15c0.37,0.55,0.81,0.99,1.08,1.27c1.24,1.27,2.28,1.05,3.21-0.13c0.28-0.35,0.66-1.04,1.19-1.28
		c0.39-0.17,0.86-0.15,0.92-0.33l0,0l0,0c0.06-0.18-0.33-0.43-0.55-0.8C725.33,55.31,725.42,54.53,725.4,54.08 M713.78,54.81
		c-0.36-0.19-0.65-0.49-0.84-0.86c-0.23-0.45-0.28-0.95-0.15-1.43c-0.63-0.23-1.25-0.33-1.64-0.4c-1.75-0.29-2.47,0.49-2.53,1.99
		c-0.02,0.45,0.07,1.24-0.21,1.73c-0.22,0.37-0.61,0.62-0.55,0.8v0c0.06,0.18,0.52,0.15,0.92,0.33c0.53,0.23,0.91,0.92,1.19,1.27
		c0.93,1.18,1.97,1.39,3.21,0.12c0.27-0.27,0.7-0.71,1.07-1.25C713.6,56.53,713.42,55.59,713.78,54.81 M722.92,60.32l-1.04-0.3
		c-0.12-0.01-0.23,0.08-0.25,0.2l0.09,1.08c-0.01,0.12,0.08,0.23,0.2,0.24l0.87,0.09c0.12,0.01,0.23-0.08,0.24-0.2l0.09-0.87
		C723.13,60.44,723.04,60.33,722.92,60.32 M720.31,58.76c0.82,1.58,0.3,2.5-1.11,3.02c-0.42,0.15-1.2,0.31-1.58,0.74
		c-0.29,0.32-0.41,0.77-0.6,0.77c-0.19,0-0.31-0.45-0.6-0.77c-0.38-0.43-1.16-0.58-1.58-0.74c-1.41-0.52-1.93-1.44-1.11-3.02
		c0.17-0.33,0.45-0.87,0.84-1.38c0.31,0.19,0.67,0.29,1.04,0.29c0.52,0,1.02-0.2,1.4-0.56c0.37,0.33,0.86,0.53,1.36,0.53
		c0.38,0,0.74-0.1,1.06-0.3C719.85,57.86,720.13,58.41,720.31,58.76"/>
	<path class="st1" d="M714.35,54.23c0.11,0.04,0.22,0.06,0.33,0.06c0,0,0,0,0,0c0.06,0.01,0.12,0.04,0.16,0.09
		c0.07,0.09,0.05,0.22-0.03,0.3v0c-0.08,0.07-0.15,0.14-0.21,0.23c-0.41,0.56-0.28,1.35,0.28,1.76c0.56,0.41,1.35,0.28,1.76-0.28
		c0.07-0.09,0.12-0.19,0.16-0.3h0c0.02-0.06,0.07-0.1,0.14-0.13c0.11-0.04,0.23,0.02,0.27,0.12h0c0.04,0.09,0.09,0.18,0.15,0.27
		c0.41,0.56,1.19,0.69,1.76,0.28c0.56-0.41,0.69-1.2,0.28-1.76c-0.07-0.09-0.15-0.17-0.23-0.24c0,0,0,0,0,0
		c-0.05-0.04-0.08-0.1-0.08-0.17c0-0.12,0.09-0.21,0.2-0.22c0,0,0,0,0,0c0.1-0.01,0.2-0.02,0.3-0.06c0.66-0.21,1.02-0.93,0.81-1.59
		c-0.21-0.66-0.92-1.02-1.58-0.81c-0.11,0.04-0.21,0.08-0.3,0.14c0,0,0,0,0,0c-0.05,0.03-0.12,0.04-0.18,0.02
		c-0.11-0.04-0.17-0.15-0.15-0.26c0,0,0,0,0,0c0.02-0.1,0.04-0.2,0.04-0.3c0-0.69-0.56-1.26-1.26-1.26c-0.7,0-1.26,0.56-1.26,1.26
		c0,0.12,0.02,0.23,0.04,0.33l0,0c0.01,0.06,0,0.13-0.04,0.18c-0.07,0.09-0.2,0.12-0.29,0.06l0,0c-0.09-0.05-0.18-0.1-0.28-0.13
		c-0.66-0.21-1.37,0.15-1.58,0.81C713.32,53.3,713.69,54.01,714.35,54.23"/>
	<path class="st2" d="M715.91,53.71c0-0.55,0.44-0.99,0.99-0.99c0.55,0,0.99,0.44,0.99,0.99c0,0.55-0.44,0.99-0.99,0.99
		C716.35,54.7,715.91,54.26,715.91,53.71"/>
	<path class="st2" d="M767.45,51.29l-0.44,0.76c-0.17,0.3-0.5,0.49-0.85,0.49h-0.02c0.2,0.39,0.33,0.89,0.36,1.55
		c0,0.12,0,0.24,0,0.37c0,0.32-0.01,0.8,0.11,1.01c0.05,0.09,0.14,0.19,0.23,0.28c0.21,0.23,0.55,0.62,0.39,1.14l0,0v0
		c-0.17,0.52-0.68,0.63-0.98,0.69c-0.13,0.03-0.26,0.05-0.35,0.1c-0.22,0.1-0.5,0.49-0.68,0.75c-0.08,0.11-0.15,0.21-0.22,0.3
		c-0.44,0.56-0.91,0.94-1.41,1.13c0.37,0.2,0.59,0.64,0.49,1.07l-0.18,0.85c-0.1,0.45-0.5,0.78-0.96,0.78
		c-0.07,0-0.14-0.01-0.21-0.02l-0.86-0.18c-0.36-0.08-0.64-0.35-0.73-0.68c-0.33,0.34-0.78,0.61-1.36,0.82
		c-0.11,0.04-0.23,0.08-0.35,0.12c-0.3,0.09-0.76,0.24-0.92,0.42c-0.07,0.08-0.14,0.19-0.2,0.3c-0.15,0.27-0.41,0.72-0.96,0.72v0
		l0,0l0,0v0c-0.55,0-0.81-0.45-0.96-0.72c-0.06-0.11-0.13-0.23-0.2-0.3c-0.16-0.18-0.62-0.32-0.92-0.42
		c-0.12-0.04-0.24-0.08-0.35-0.12c-0.67-0.24-1.17-0.58-1.51-0.99c-0.03,0.16-0.1,0.31-0.21,0.44c-0.17,0.2-0.4,0.33-0.66,0.36
		l-0.87,0.09c-0.04,0-0.07,0.01-0.1,0.01c-0.51,0-0.93-0.38-0.98-0.88l-0.09-0.87c-0.03-0.26,0.05-0.52,0.22-0.72
		c0.06-0.07,0.13-0.14,0.2-0.19c-0.42-0.21-0.82-0.56-1.2-1.04c-0.07-0.09-0.14-0.19-0.22-0.3c-0.18-0.26-0.46-0.65-0.68-0.75
		c-0.09-0.04-0.22-0.07-0.35-0.1c-0.3-0.06-0.81-0.17-0.98-0.69l0.02-0.01l0,0l-0.02,0c-0.17-0.52,0.18-0.91,0.39-1.14
		c0.09-0.1,0.18-0.2,0.23-0.28c0.12-0.21,0.11-0.69,0.11-1.01c0-0.13,0-0.26,0-0.37c0.03-0.77,0.21-1.33,0.47-1.74
		c-0.04,0.01-0.08,0.01-0.12,0.01c-0.39,0-0.74-0.23-0.9-0.59l-0.35-0.8c-0.11-0.24-0.11-0.51-0.02-0.75
		c0.09-0.24,0.28-0.44,0.52-0.55l0.8-0.35c0.13-0.05,0.26-0.08,0.4-0.08c0.22,0,0.43,0.07,0.6,0.2c0.07-0.47,0.27-0.96,0.62-1.46
		c0.07-0.1,0.14-0.2,0.22-0.3c0.19-0.25,0.48-0.64,0.5-0.88c0.01-0.1,0-0.23-0.02-0.36c-0.03-0.31-0.09-0.82,0.35-1.14l0.07,0.09
		l0,0l-0.06-0.09c0.15-0.11,0.34-0.17,0.53-0.17c0.25,0,0.46,0.09,0.67,0.18c0.12,0.05,0.24,0.11,0.34,0.13
		c0.03,0.01,0.06,0.01,0.1,0.01c0.25,0,0.61-0.12,0.89-0.21c0.13-0.04,0.24-0.08,0.35-0.11c0.4-0.11,0.78-0.17,1.12-0.17
		c0.2,0,0.44,0.02,0.69,0.09c-0.07-0.15-0.11-0.31-0.1-0.48c0.01-0.26,0.13-0.5,0.33-0.68l0.65-0.58c0.18-0.16,0.41-0.25,0.66-0.25
		c0.28,0,0.55,0.12,0.73,0.33l0.58,0.65c0.25,0.28,0.31,0.66,0.19,0.98c0.17-0.03,0.33-0.04,0.47-0.04c0.34,0,0.71,0.06,1.12,0.17
		c0.11,0.03,0.23,0.07,0.35,0.11c0.28,0.1,0.63,0.21,0.89,0.21c0.04,0,0.07,0,0.1-0.01c0.1-0.02,0.22-0.08,0.34-0.13
		c0.21-0.09,0.42-0.18,0.67-0.18c0.19,0,0.38,0.06,0.53,0.17v0h0c0.44,0.33,0.39,0.84,0.36,1.15c-0.02,0.13-0.03,0.26-0.02,0.36
		c0.03,0.24,0.31,0.62,0.5,0.88c0.08,0.11,0.15,0.21,0.22,0.3c0.4,0.59,0.61,1.16,0.64,1.69c0.18-0.17,0.42-0.27,0.68-0.27
		c0.17,0,0.34,0.05,0.49,0.13l0.75,0.44c0.23,0.13,0.39,0.35,0.46,0.6C767.61,50.79,767.58,51.06,767.45,51.29"/>
	<path class="st2" d="M757.41,49.36c-0.98,0-1.79,0.69-1.98,1.61c-0.09-0.01-0.18-0.02-0.27-0.02c-0.88,0-1.65,0.56-1.92,1.4
		c-0.3,0.93,0.11,1.92,0.92,2.38c-0.18,0.37-0.24,0.78-0.17,1.19c0.08,0.53,0.37,1,0.81,1.32c0.35,0.25,0.76,0.39,1.19,0.39
		c0.51,0,0.99-0.19,1.36-0.53c0.37,0.35,0.87,0.56,1.4,0.56c0.43,0,0.84-0.13,1.19-0.39c0.79-0.57,1.04-1.61,0.65-2.47
		c0.36-0.19,0.65-0.49,0.84-0.86c0.24-0.48,0.29-1.03,0.12-1.54c-0.27-0.84-1.04-1.4-1.92-1.4c-0.07,0-0.15,0-0.22,0.01
		c-0.07-0.4-0.27-0.77-0.56-1.07C758.45,49.58,757.95,49.36,757.41,49.36"/>
	<path class="st1" d="M757.15,49.38c0.04-0.71-0.07-1.39-0.13-1.8c-0.26-1.76-1.23-2.2-2.67-1.79c-0.43,0.12-1.15,0.45-1.71,0.33
		c-0.42-0.09-0.78-0.38-0.93-0.27h0c-0.15,0.11,0.01,0.54-0.03,0.97c-0.06,0.57-0.59,1.15-0.84,1.53c-0.83,1.25-0.72,2.3,0.87,3.09
		c0.36,0.18,0.96,0.48,1.63,0.66c0.33-0.7,1.03-1.15,1.82-1.15c0.09,0,0.18,0.01,0.27,0.02C755.6,50.14,756.29,49.49,757.15,49.38
		 M758.21,44.79c0.09-0.08,0.1-0.22,0.02-0.31l-0.58-0.65c-0.08-0.09-0.22-0.1-0.31-0.02l-0.65,0.58c-0.09,0.08-0.1,0.22-0.02,0.31
		l0.57,0.93c0.08,0.09,0.22,0.1,0.32,0.02L758.21,44.79L758.21,44.79z M763.02,51.47c1.59-0.79,1.71-1.85,0.87-3.09
		c-0.25-0.37-0.79-0.95-0.84-1.53c-0.04-0.43,0.12-0.86-0.03-0.97c-0.15-0.11-0.51,0.18-0.93,0.27c-0.56,0.12-1.28-0.21-1.71-0.33
		c-1.45-0.41-2.41,0.03-2.67,1.79c-0.06,0.4-0.16,1.06-0.13,1.77c0.48,0.04,0.92,0.24,1.26,0.58c0.29,0.3,0.49,0.66,0.56,1.07
		c0.08-0.01,0.15-0.01,0.22-0.01c0.77,0,1.47,0.44,1.8,1.11C762.08,51.94,762.66,51.65,763.02,51.47 M766.79,50.9
		c0.06-0.11,0.02-0.24-0.08-0.3l-0.76-0.44c-0.11-0.06-0.24-0.02-0.3,0.08l-0.71,0.83c-0.06,0.11-0.02,0.24,0.08,0.3l1.02,0.37
		c0.11,0.06,0.24,0.02,0.3-0.08L766.79,50.9L766.79,50.9z M749.68,51.28c0.11-0.05,0.16-0.18,0.11-0.29l-0.61-0.9
		c-0.05-0.11-0.18-0.16-0.29-0.11l-0.8,0.35c-0.11,0.05-0.16,0.18-0.11,0.29l0.35,0.8c0.05,0.11,0.18,0.16,0.29,0.11L749.68,51.28
		L749.68,51.28z M761.85,61.33c-0.03,0.12,0.05,0.24,0.17,0.26l0.85,0.18c0.12,0.03,0.24-0.05,0.27-0.17l0.18-0.86
		c0.03-0.12-0.05-0.24-0.17-0.27l-1-0.41c-0.12-0.03-0.24,0.05-0.27,0.17L761.85,61.33L761.85,61.33z M748.95,54.08
		c-0.02,0.45,0.07,1.23-0.21,1.73c-0.22,0.37-0.61,0.62-0.55,0.8l0,0l0,0c0.06,0.18,0.52,0.15,0.92,0.33
		c0.53,0.23,0.91,0.92,1.19,1.28c0.93,1.18,1.97,1.39,3.21,0.13c0.27-0.28,0.71-0.72,1.08-1.27c-0.32-0.3-0.53-0.7-0.6-1.15
		c-0.07-0.41,0-0.82,0.17-1.19c-0.77-0.44-1.18-1.35-0.97-2.22c-0.66-0.25-1.32-0.36-1.72-0.42
		C749.72,51.79,749.01,52.58,748.95,54.08 M760.58,54.81c0.35,0.78,0.17,1.72-0.47,2.32c0.37,0.54,0.8,0.97,1.07,1.25
		c1.25,1.27,2.28,1.05,3.21-0.12c0.28-0.35,0.66-1.04,1.19-1.27c0.4-0.17,0.86-0.15,0.92-0.33v0c0.06-0.18-0.33-0.43-0.55-0.8
		c-0.29-0.5-0.2-1.28-0.21-1.73c-0.06-1.5-0.77-2.28-2.52-1.99c-0.39,0.07-1.01,0.17-1.64,0.4c0.13,0.48,0.08,0.99-0.15,1.43
		C761.23,54.32,760.94,54.62,760.58,54.81 M751.44,60.32c-0.12,0.01-0.21,0.12-0.2,0.24l0.09,0.87c0.01,0.12,0.12,0.21,0.24,0.2
		l0.87-0.09c0.12-0.01,0.21-0.12,0.2-0.24l0.08-1.08c-0.01-0.12-0.12-0.21-0.24-0.2L751.44,60.32L751.44,60.32z M754.04,58.76
		c0.18-0.34,0.46-0.9,0.87-1.43c0.32,0.2,0.68,0.3,1.06,0.3c0.51,0,0.99-0.19,1.36-0.53c0.37,0.35,0.87,0.56,1.4,0.56
		c0.37,0,0.73-0.1,1.04-0.29c0.39,0.51,0.66,1.05,0.84,1.38c0.82,1.58,0.3,2.5-1.11,3.02c-0.42,0.15-1.2,0.31-1.58,0.74
		c-0.29,0.32-0.4,0.77-0.59,0.77c-0.19,0-0.31-0.45-0.6-0.77c-0.38-0.43-1.16-0.58-1.58-0.74
		C753.75,61.25,753.22,60.33,754.04,58.76"/>
	<path class="st1" d="M760.01,54.23c-0.11,0.04-0.22,0.06-0.33,0.06c0,0,0,0,0,0c-0.06,0.01-0.12,0.04-0.16,0.09
		c-0.07,0.09-0.05,0.22,0.03,0.3v0c0.08,0.07,0.15,0.14,0.21,0.23c0.41,0.56,0.28,1.35-0.28,1.76c-0.56,0.41-1.35,0.28-1.76-0.28
		c-0.07-0.09-0.12-0.19-0.16-0.3h0c-0.02-0.06-0.07-0.1-0.14-0.13c-0.11-0.04-0.23,0.02-0.27,0.12h0c-0.04,0.09-0.09,0.18-0.15,0.27
		c-0.41,0.56-1.19,0.69-1.76,0.28c-0.56-0.41-0.69-1.2-0.28-1.76c0.07-0.09,0.15-0.17,0.23-0.24c0,0,0,0,0,0
		c0.05-0.04,0.08-0.1,0.08-0.17c0-0.12-0.09-0.21-0.2-0.22c0,0,0,0,0,0c-0.1-0.01-0.2-0.02-0.3-0.06c-0.66-0.21-1.02-0.93-0.81-1.59
		c0.21-0.66,0.92-1.02,1.58-0.81c0.11,0.04,0.21,0.08,0.3,0.14c0,0,0,0,0,0c0.05,0.03,0.12,0.04,0.18,0.02
		c0.11-0.04,0.17-0.15,0.15-0.26c0,0,0,0,0,0c-0.03-0.1-0.04-0.2-0.04-0.3c0-0.69,0.56-1.26,1.26-1.26c0.69,0,1.26,0.56,1.26,1.26
		c0,0.12-0.02,0.23-0.04,0.33v0c-0.01,0.06,0,0.13,0.04,0.18c0.07,0.09,0.2,0.12,0.29,0.06l0,0c0.09-0.05,0.18-0.1,0.28-0.13
		c0.66-0.21,1.37,0.15,1.58,0.81C761.03,53.3,760.67,54.01,760.01,54.23"/>
	<path class="st2" d="M758.45,53.71c0-0.55-0.45-0.99-0.99-0.99c-0.55,0-0.99,0.44-0.99,0.99c0,0.55,0.44,0.99,0.99,0.99
		C758,54.7,758.45,54.26,758.45,53.71"/>
	<path d="M556.22,31.91c0-3.97,1.17-7.62,4.02-9.94c2.16-1.76,5.18-2.73,8.17-2.73c2.88,0,5.41,0.9,7.42,2.27
		c0,0,2.65,1.66,2.65,4.53c0,1.42-1.13,2.58-2.52,2.58c-1.39,0-2.39-1.1-2.33-2.58c0.03-0.7,0.13-1.89-0.3-2.77
		c-1.16-2.36-4.46-2.24-4.46-2.24c-4.83,0-6.94,4.82-6.94,10.77c0,7.91,4.35,10.77,8.06,10.77c0,0,4.18,0.07,7.8-4.65l1.49,0.96
		c-2.25,3.42-6.11,5.69-10.49,5.69C561.85,44.56,556.22,38.89,556.22,31.91L556.22,31.91z M566.2,56.92h-9.65v1.26l3.59,0.99
		l-5.74,15.98l-5.92-16.02l3.36-0.9v-1.39H540.7v1.35l2.92,0.81l8.17,20.19h2.65l8.53-20.11l3.23-0.85V56.92L566.2,56.92z
		 M495.79,50.32L495.79,50.32c0-0.01,0-0.03,0-0.04l4.08-1.08v-1.57h-11.13v1.44l4.43,1.16v20.42c0,0,0.32,6.85-8.71,6.85
		c-9.03,0-9.03-5.95-9.03-6.85c0-0.81,0-17.13,0-20.38l4.51-1.25v-1.39h-13.51v1.44l4.4,1.17v20.08c0,0-0.74,9.51,12.85,9.51
		c12.9,0,12.1-8.97,12.1-8.97V50.32L495.79,50.32z M674.73,58.22l3.95,1.08l-5.88,15.62l-6.37-15.8l3.23-0.9v-1.35H658.8v1.44
		l3.01,0.81l8.75,21.59c-0.58,1.06-1.13,2.12-1.68,3.19c-0.66,1.28-2.07,3.33-3.67,3.48c-1.48,0.13-1.87-1.66-3.02-2.29
		c-2.11-1.15-4.07,1.66-2.65,3.43c0.7,0.87,1.91,1.4,2.99,1.47c1.18,0.07,2.44-0.14,3.51-0.65c0.59-0.28,1.2-0.65,1.7-1.09
		c1.02-0.9,1.76-2.02,2.39-3.21c1.04-1.97,2.03-3.92,2.89-5.97c0.74-1.76,1.48-3.51,2.22-5.27c0.91-2.13,1.79-4.27,2.69-6.4
		c0.78-1.84,1.55-3.69,2.33-5.54c0.38-0.89,0.75-1.78,1.12-2.67c0.01-0.02,0.02-0.04,0.03-0.07l3.19-0.85v-1.44h-9.87V58.22
		L674.73,58.22z M496.16,33.33l-1.2-0.45v0l-0.21-0.08c-3.33,5.81-9.98,9.31-14.34,9.31c0,0-4.57,0.23-4.57-3.85h0V12.38l4.39-1.22
		l0.05-1.12h-13.84v1.32l4.14,1.07v28.8l-4.19,1.12v1.66h25.78L496.16,33.33L496.16,33.33z M529.02,41.16l-4.14,1.34v1.51h13.16
		v-1.51l-4.19-1.34V25.88v-0.02c1.15-0.91,2.39-1.74,3.69-2.42c1.63-0.86,3.73-1.86,5.62-1.57c0.96,0.15,2.04,0.81,2.62,1.59
		c0.87,1.18,1.14,2.76,1.15,4.19l-0.02,13.43c0-0.1,0,0.12,0,0.12l-4.14,1.29v1.53h13.25l-0.01-1.51l-4.13-1.34V25.8
		c0-1.72-0.59-3.28-1.92-4.41c-1.39-1.18-3.16-1.77-4.95-1.97c-3.21-0.37-6.33,0.76-8.97,2.48c-0.76,0.5-1.5,1.03-2.24,1.55v-3.62
		h-1.75l-7.36,1.95v1.46h4.34V41.16L529.02,41.16z M546.91,41.07c0,0.02,0,0.04,0,0.08V41.07L546.91,41.07z M519.1,76.48
		c0,0.01,0,0.04,0,0.09V76.48L519.1,76.48z M523.67,76.54V62.46c0-1.58-0.54-3.02-1.76-4.05c-1.28-1.08-2.9-1.63-4.54-1.81
		c-2.94-0.33-5.81,0.69-8.24,2.28c-0.7,0.45-1.38,0.94-2.06,1.43v-3.32h-1.61l-6.76,1.79v1.34h3.98v16.45l-3.8,1.23v1.39h12.09V77.8
		l-3.85-1.23V62.53l0-0.02c1.06-0.84,2.2-1.6,3.39-2.22c1.49-0.79,3.42-1.71,5.16-1.44c0.88,0.13,1.88,0.74,2.41,1.46
		c0.79,1.08,1.05,2.53,1.05,3.85l-0.02,12.33c0-0.07,0,0.12,0,0.12l-3.81,1.18v1.4h12.18l0-1.42L523.67,76.54L523.67,76.54z
		 M619.87,28.82c-3.7-0.7-6.69-1.7-6.69-4.17c0-2.99,3.58-3.25,5.08-3.2c6.84,0.25,8.73,5.98,8.73,5.98h1.54l-1.55-7.56h-1.38
		l-0.48,1.63c-1.19-0.8-3.7-2.18-6.72-2.18c-6.05,0-9.51,3.51-9.51,7.37c0,3.86,4.95,5.46,8.68,6.54c3.62,1.05,8.47,1.25,8.47,4.83
		c0,4.38-5.95,4.28-5.95,4.28c-8.07,0-10.18-7.2-10.18-7.2h-1.69l1.59,8.85h1.61l0.58-2c0,0,4.03,2.37,8.27,2.37
		c6.04,0,10.1-3.94,10.1-8.14C630.38,30.58,623.75,29.56,619.87,28.82L619.87,28.82z M653.54,77.71c-1.93,0-3.21-1.49-3.47-3.06
		c-0.11-0.66-0.07-1.88-0.07-2.96l0-13.38h6.6v-1.45h-6.6v-8.51h-2.1c0,0,0.1,3.78-1.78,6.48c-1.43,2.05-4.29,2.16-4.29,2.16v1.42
		h3.65v13.64c0,1.08-0.01,2.11-0.01,2.78c0,3,2.92,4.73,6.2,4.73c4.24,0,5.94-1.83,7.08-3.02l-1.15-0.98
		C656.33,76.67,655.17,77.71,653.54,77.71L653.54,77.71z M634.35,36.21c0,1.17-0.01,2.29-0.01,3.01c0,3.24,3.16,5.12,6.71,5.12
		c4.17,0,6.07-1.64,7.3-2.9c-0.34-0.44-0.66-0.89-0.96-1.36c-1.37,1.17-2.61,2.25-4.34,2.25c-2.08,0-3.47-1.62-3.76-3.31
		c-0.12-0.71-0.07-2.03-0.07-3.2l0-14.38h7.14V19.8h-7.14v-9.23h-2.27c0,0,0.11,4.09-1.92,7.01c-1.55,2.22-4.64,2.34-4.64,2.34v1.54
		h3.95V36.21L634.35,36.21z M647.29,31.91c0-4.16,1.68-8.04,4.78-10.31c2.03-1.49,4.44-2.18,7.14-2.18c5.97,0,10.44,4.05,10.78,10.2
		h-17.54c0,0-1.83,12.55,8.07,12.55c0,0,5.17,0.21,7.68-4.52l1.53,0.73c-1.24,3.53-5.43,6.01-9.9,6.01
		C653.02,44.39,647.29,38.8,647.29,31.91L647.29,31.91z M652.63,27.52h12.14c-0.2-3.77-2.58-6.26-5.96-6.26
		C656.08,21.26,652.63,22.85,652.63,27.52L652.63,27.52z M570.64,65.95c0,0-1.69,11.59,7.45,11.59c0,0,4.77,0.2,7.09-4.18l1.42,0.68
		c-1.14,3.26-5.01,5.55-9.14,5.55c-6.3,0-11.58-5.16-11.58-11.53c0-3.84,1.55-7.42,4.41-9.52c1.88-1.37,4.1-2.01,6.59-2.01
		c5.51,0,9.64,3.74,9.96,9.42H570.64L570.64,65.95z M570.81,64.01h11.2c-0.18-3.48-2.38-5.78-5.51-5.78
		C573.99,58.23,570.81,59.7,570.81,64.01L570.81,64.01z M690.02,19.52L690.02,19.52c-0.03-0.01-0.05-0.01-0.08-0.02
		c-0.03-0.01-0.05-0.01-0.08-0.02c-5.04-1.12-8.98,3.05-9.82,4.03v-3.65h-2l-7.21,1.95v1.46h4.34v18.18l-4.19,1.12v1.44h13.54v-1.44
		l-4.48-1.17V25.76c0.29-0.31,2.58-2.71,4.52-2.71c2.22,0,2.3,1.41,4.5,1.64c0.01,0,0.03,0,0.04,0c0,0,0.01,0,0.01,0v0
		c0.08,0.01,0.16,0.01,0.24,0.01c1.46,0,2.64-1.18,2.64-2.64C692,20.84,691.16,19.81,690.02,19.52L690.02,19.52z M606.13,56.64
		L606.13,56.64c-0.02-0.01-0.05-0.01-0.07-0.02c-0.02,0-0.05-0.01-0.07-0.02c-4.64-1.02-8.26,2.8-9.03,3.7v-3.36h-1.84l-6.63,1.79
		v1.35h3.99v16.72l-3.85,1.03v1.34h12.46v-1.34l-4.12-1.08V62.38c0.27-0.29,2.37-2.49,4.16-2.49c2.05,0,2.11,1.29,4.14,1.51
		c0.01,0,0.03,0,0.04,0.01c0,0,0.01,0,0.01,0c0.07,0.01,0.15,0.01,0.22,0.01c1.34,0,2.42-1.09,2.42-2.43
		C607.95,57.86,607.18,56.91,606.13,56.64L606.13,56.64z M537.38,56.92l-8.21,0.85v1.84h3.86v16.92l-3.99,1.24l0,1.41h12.16v-1.41
		l-3.81-1.23V56.92L537.38,56.92z M535.49,49.07c-1.54,0-2.78,1.25-2.78,2.78c0,1.54,1.25,2.78,2.78,2.78
		c1.54,0,2.78-1.25,2.78-2.78C538.27,50.32,537.02,49.07,535.49,49.07L535.49,49.07z M638.88,56.92l-8.21,0.85v1.84h3.86v16.92
		l-3.91,1.24v1.41h12.07v-1.41l-3.81-1.23V56.92L638.88,56.92z M634.03,51.85c0,1.54,1.25,2.78,2.78,2.78s2.78-1.25,2.78-2.78
		c0-1.54-1.25-2.78-2.78-2.78S634.03,50.32,634.03,51.85L634.03,51.85z M597.92,29.92l0.01-4.79c0-3.63-3.89-3.74-5.56-3.74
		c-1.34,0-3.9,0.08-5.11,1.63c-0.66,0.84-0.44,2.31-0.41,3.01c0.07,1.47-0.93,2.57-2.33,2.57c-1.39,0-2.52-1.15-2.52-2.57
		c0-2.87,2.65-4.53,2.65-4.53c2.01-1.36,5.46-2.06,8.34-2.06c2.99,0,5.51,0.6,7.74,2.27c1.14,0.86,2.02,2.31,2.02,5.33
		c0,3.93,0,14.11,0,14.11l4.79,1.33L607.8,44h-7.04l-2.86-3.09c0,0-4.08,3.43-9.22,3.43c-5.14,0-7.49-2.77-7.49-5.31
		c0,0-0.84-5.26,6.76-7.55c1.43-0.43,2.72-0.68,3.83-0.88C595.88,29.85,597.92,29.92,597.92,29.92L597.92,29.92L597.92,29.92z
		 M597.85,31.67c0,0-4.8,0.16-8.06,1.59c-2.47,1.08-3.82,2.95-3.69,5.21c0.07,1.35,1.52,3.64,5,3.41c3.44-0.22,6.76-3.21,6.76-3.21
		V31.67L597.85,31.67z M619.51,65.11c-3.42-0.65-6.18-1.57-6.18-3.85c0-2.76,3.31-3.01,4.7-2.96c6.32,0.23,8.07,5.53,8.07,5.53h1.42
		l-1.43-6.99h-1.27l-0.44,1.51c-1.1-0.74-3.41-2.01-6.21-2.01c-5.59,0-8.79,3.24-8.79,6.81c0,3.57,4.57,5.04,8.02,6.04
		c3.34,0.97,7.83,1.15,7.83,4.47c0,4.04-5.5,3.96-5.5,3.96c-7.46,0-9.41-6.65-9.41-6.65h-1.56l1.48,8.18h1.49l0.54-1.85
		c0,0,3.72,2.19,7.64,2.19c5.59,0,9.33-3.64,9.33-7.53C629.22,66.73,623.1,65.79,619.51,65.11L619.51,65.11z M513.99,29.92
		l0.01-4.79c0-3.63-3.89-3.74-5.56-3.74c-1.34,0-3.9,0.08-5.12,1.63c-0.66,0.84-0.44,2.31-0.41,3.01c0.07,1.47-0.93,2.57-2.33,2.57
		c-1.39,0-2.52-1.15-2.52-2.57c0-2.87,2.65-4.53,2.65-4.53c2.01-1.36,5.46-2.06,8.34-2.06c2.99,0,5.51,0.6,7.74,2.27
		c1.14,0.86,2.03,2.31,2.03,5.33c0,3.93,0,14.11,0,14.11l4.5,1.25V44h-6.48l-2.86-3.09c0,0-4.08,3.43-9.22,3.43
		c-5.14,0-7.49-2.77-7.49-5.31c0,0-0.84-5.26,6.76-7.55c1.43-0.43,2.72-0.68,3.83-0.88C511.95,29.85,513.98,29.92,513.99,29.92
		L513.99,29.92z M513.91,31.67c0,0-4.8,0.16-8.06,1.59c-2.47,1.08-3.81,2.95-3.69,5.21c0.07,1.35,1.52,3.64,5,3.41
		c3.44-0.22,6.76-3.21,6.76-3.21V31.67L513.91,31.67z"/>
	<path class="st2" d="M767.4,73.54c-1.84,0.51-4.06,0.87-7.22,0.87c-2.81,0-4.87-0.29-6.59-0.71c-1.29-0.32-2.38-0.71-3.46-1.14
		c-1.61-0.64-3.19-1.36-5.2-1.92c-2.01-0.56-4.44-0.95-7.75-0.95c-2.94,0-5.19,0.3-7.06,0.77c-1.41,0.35-2.6,0.78-3.72,1.22
		c-1.67,0.67-3.16,1.34-4.99,1.85c-1.84,0.51-4.06,0.87-7.22,0.87c-2.81,0-4.87-0.29-6.59-0.71c-1.21-0.3-2.24-0.66-3.26-1.06
		c0.38,0.85,0.78,1.7,1.2,2.55c0.29,0.09,0.59,0.18,0.9,0.27c2.01,0.56,4.44,0.95,7.75,0.95c2.94,0,5.19-0.3,7.06-0.77
		c1.41-0.35,2.6-0.78,3.72-1.22c1.67-0.67,3.16-1.34,4.99-1.85c1.84-0.51,4.06-0.87,7.22-0.87c2.81,0,4.87,0.29,6.59,0.71
		c1.29,0.32,2.38,0.71,3.46,1.14c1.61,0.64,3.18,1.36,5.2,1.92c2.01,0.56,4.44,0.95,7.75,0.95c2.94,0,5.19-0.3,7.06-0.77
		c0.55-0.14,1.07-0.29,1.56-0.45c0.42-0.85,0.82-1.7,1.2-2.54C769.18,72.97,768.34,73.27,767.4,73.54L767.4,73.54z"/>
	<path class="st2" d="M760.19,70.4c-2.81,0-4.87-0.29-6.59-0.71c-1.29-0.32-2.38-0.71-3.46-1.14c-1.61-0.64-3.19-1.36-5.2-1.92
		c-2.01-0.56-4.44-0.95-7.75-0.95c-2.94,0-5.19,0.3-7.06,0.77c-1.41,0.35-2.6,0.78-3.72,1.22c-1.67,0.67-3.16,1.34-4.99,1.85
		c-1.84,0.51-4.06,0.87-7.22,0.87c-2.81,0-4.87-0.29-6.59-0.71c-1.29-0.32-2.38-0.71-3.46-1.14c-0.57-0.23-1.13-0.46-1.71-0.7
		c0.3,0.84,0.62,1.69,0.97,2.55c0.93,0.37,1.92,0.73,3.04,1.05c2.01,0.56,4.44,0.95,7.75,0.94c2.94,0,5.19-0.3,7.06-0.76
		c1.41-0.35,2.6-0.78,3.72-1.22c1.67-0.67,3.16-1.34,4.99-1.85c1.84-0.51,4.06-0.87,7.22-0.87c2.81,0,4.87,0.29,6.59,0.71
		c1.29,0.32,2.38,0.71,3.46,1.14c1.61,0.64,3.18,1.36,5.2,1.92c2.01,0.56,4.44,0.95,7.75,0.94c2.94,0,5.19-0.3,7.06-0.76
		c1.4-0.35,2.59-0.78,3.7-1.22c0.34-0.85,0.67-1.7,0.97-2.55c-1.48,0.6-2.86,1.2-4.52,1.66C765.56,70.04,763.34,70.4,760.19,70.4
		L760.19,70.4z"/>
	<path class="st2" d="M701.79,65.92c1.43,0.58,2.87,1.21,4.66,1.71c2.01,0.56,4.44,0.95,7.75,0.95c2.94,0,5.19-0.3,7.06-0.77
		c1.41-0.35,2.6-0.78,3.72-1.22c1.67-0.67,3.16-1.34,4.99-1.85c1.84-0.51,4.06-0.87,7.22-0.87c2.81,0,4.87,0.29,6.59,0.71
		c1.29,0.32,2.38,0.71,3.46,1.14c1.61,0.64,3.18,1.36,5.2,1.92c2.01,0.56,4.44,0.95,7.75,0.95c2.94,0,5.19-0.3,7.06-0.77
		c1.41-0.35,2.6-0.78,3.72-1.22c0.55-0.22,1.08-0.44,1.61-0.65c0.26-0.82,0.5-1.63,0.73-2.43c-0.31,0.11-0.61,0.23-0.9,0.35
		c-1.67,0.67-3.16,1.34-4.99,1.85c-1.84,0.51-4.06,0.87-7.22,0.87c-2.81,0-4.87-0.29-6.59-0.71c-1.29-0.32-2.38-0.71-3.46-1.14
		c-1.61-0.64-3.19-1.36-5.2-1.92c-2.01-0.56-4.44-0.95-7.75-0.95c-2.94,0-5.19,0.3-7.06,0.77c-1.41,0.35-2.6,0.78-3.72,1.22
		c-1.67,0.67-3.16,1.34-4.99,1.85c-1.84,0.51-4.06,0.87-7.22,0.87c-2.81,0-4.87-0.29-6.59-0.71c-1.29-0.32-2.38-0.71-3.46-1.14
		c-1.01-0.4-2-0.83-3.09-1.23C701.29,64.29,701.53,65.1,701.79,65.92L701.79,65.92z"/>
	<polygon class="st2" points="698.74,40.23 698.74,41.23 775.61,41.23 775.61,40.23 698.74,40.23 	"/>
	<line class="st3" x1="443.59" y1="0" x2="443.59" y2="90.06"/>
	<g>
		<path class="st4" d="M247.88,34.6l1.52-1.48c0.99,1.16,2.18,2.13,3.57,2.9c1.39,0.77,3.06,1.15,5.01,1.15
			c2.24,0,4.08-0.52,5.53-1.55c1.45-1.03,2.18-2.56,2.18-4.6c0-1.45-0.36-2.61-1.07-3.49c-0.71-0.87-1.63-1.55-2.77-2.05
			c-1.13-0.49-2.31-0.9-3.53-1.22c-1.1-0.32-2.2-0.66-3.29-1.02c-1.09-0.36-2.08-0.83-2.96-1.39c-0.89-0.57-1.6-1.32-2.13-2.27
			c-0.54-0.94-0.81-2.13-0.81-3.55c0-1.34,0.36-2.56,1.07-3.68c0.71-1.12,1.74-2.01,3.09-2.68c1.35-0.67,2.97-1,4.86-1
			c1.66,0,3.05,0.22,4.18,0.65c1.13,0.44,2.07,0.96,2.81,1.57c0.74,0.61,1.31,1.21,1.72,1.79l-1.48,1.26
			c-0.35-0.46-0.83-0.95-1.44-1.46c-0.61-0.51-1.39-0.95-2.33-1.33c-0.94-0.38-2.13-0.57-3.55-0.57c-1.6,0-2.9,0.27-3.9,0.81
			c-1,0.54-1.74,1.23-2.2,2.07c-0.46,0.84-0.7,1.73-0.7,2.66c0,1.39,0.41,2.48,1.22,3.25c0.81,0.77,1.85,1.37,3.12,1.81
			c1.26,0.44,2.55,0.83,3.86,1.18c1.02,0.26,2.03,0.6,3.03,1c1,0.41,1.92,0.93,2.74,1.57c0.83,0.64,1.49,1.45,1.98,2.44
			c0.49,0.99,0.74,2.21,0.74,3.66c0,1.69-0.44,3.13-1.33,4.34c-0.89,1.21-2.08,2.13-3.59,2.79c-1.51,0.65-3.2,0.98-5.05,0.98
			c-2.44,0-4.52-0.47-6.25-1.42C250,36.77,248.72,35.73,247.88,34.6z"/>
	</g>
	<g>
		<path class="st4" d="M288.35,34.25l1.39,1.22c-0.81,1.02-1.91,1.85-3.29,2.51c-1.38,0.65-2.93,0.98-4.64,0.98
			c-1.95,0-3.68-0.46-5.19-1.39c-1.51-0.93-2.7-2.19-3.57-3.79c-0.87-1.6-1.31-3.38-1.31-5.36c0-2,0.44-3.8,1.33-5.38
			c0.89-1.58,2.09-2.84,3.62-3.77c1.52-0.93,3.23-1.39,5.12-1.39c1.77,0,3.27,0.31,4.51,0.94c1.23,0.62,2.29,1.49,3.16,2.59
			l-1.48,1.13c-0.67-0.87-1.5-1.56-2.51-2.07c-1-0.51-2.23-0.76-3.68-0.76c-1.54,0-2.91,0.39-4.12,1.18
			c-1.21,0.78-2.15,1.84-2.83,3.16c-0.68,1.32-1.02,2.78-1.02,4.38c0,1.57,0.35,3.01,1.05,4.34c0.7,1.32,1.65,2.38,2.85,3.18
			c1.21,0.8,2.56,1.2,4.07,1.2c1.45,0,2.74-0.26,3.86-0.78C286.79,35.82,287.69,35.12,288.35,34.25z"/>
		<path class="st4" d="M294.32,38.43V9.37h1.96V22.4c0.32-0.61,0.81-1.26,1.46-1.96c0.65-0.7,1.49-1.3,2.51-1.81
			c1.02-0.51,2.27-0.76,3.75-0.76c2.85,0,4.84,0.79,5.97,2.37c1.13,1.58,1.7,3.73,1.7,6.43v11.76h-1.96V27.32
			c0-2-0.23-3.56-0.7-4.66c-0.47-1.1-1.14-1.87-2.03-2.31c-0.89-0.44-1.97-0.65-3.25-0.65c-1.68,0-3.08,0.44-4.18,1.31
			c-1.1,0.87-1.92,1.95-2.46,3.25c-0.54,1.29-0.81,2.58-0.81,3.86v10.33H294.32z"/>
		<path class="st4" d="M326.83,38.95c-1.89,0-3.62-0.47-5.19-1.42c-1.57-0.94-2.82-2.21-3.75-3.81c-0.93-1.6-1.39-3.37-1.39-5.32
			c0-1.95,0.46-3.72,1.39-5.32c0.93-1.6,2.18-2.87,3.75-3.81c1.57-0.94,3.3-1.42,5.19-1.42c1.92,0,3.65,0.47,5.21,1.42
			c1.55,0.94,2.8,2.22,3.73,3.81c0.93,1.6,1.39,3.37,1.39,5.32c0,1.95-0.46,3.72-1.39,5.32c-0.93,1.6-2.17,2.87-3.73,3.81
			C330.48,38.48,328.75,38.95,326.83,38.95z M326.83,37.17c1.57,0,2.98-0.39,4.23-1.18c1.25-0.78,2.24-1.84,2.96-3.18
			c0.73-1.34,1.09-2.8,1.09-4.4c0-1.57-0.37-3.01-1.11-4.33s-1.74-2.39-2.98-3.2c-1.25-0.81-2.64-1.22-4.18-1.22
			c-1.57,0-2.98,0.39-4.23,1.18c-1.25,0.78-2.24,1.84-2.96,3.16c-0.73,1.32-1.09,2.8-1.09,4.42c0,1.57,0.37,3.01,1.11,4.34
			c0.74,1.32,1.74,2.39,3.01,3.2C323.93,36.76,325.32,37.17,326.83,37.17z"/>
		<path class="st4" d="M351.49,38.95c-1.89,0-3.62-0.47-5.19-1.42c-1.57-0.94-2.82-2.21-3.75-3.81c-0.93-1.6-1.39-3.37-1.39-5.32
			c0-1.95,0.46-3.72,1.39-5.32c0.93-1.6,2.18-2.87,3.75-3.81c1.57-0.94,3.3-1.42,5.19-1.42c1.92,0,3.65,0.47,5.21,1.42
			c1.55,0.94,2.8,2.22,3.73,3.81c0.93,1.6,1.39,3.37,1.39,5.32c0,1.95-0.46,3.72-1.39,5.32c-0.93,1.6-2.17,2.87-3.73,3.81
			C355.14,38.48,353.41,38.95,351.49,38.95z M351.49,37.17c1.57,0,2.98-0.39,4.23-1.18c1.25-0.78,2.24-1.84,2.96-3.18
			c0.73-1.34,1.09-2.8,1.09-4.4c0-1.57-0.37-3.01-1.11-4.33s-1.74-2.39-2.98-3.2c-1.25-0.81-2.64-1.22-4.18-1.22
			c-1.57,0-2.98,0.39-4.23,1.18c-1.25,0.78-2.24,1.84-2.96,3.16c-0.73,1.32-1.09,2.8-1.09,4.42c0,1.57,0.37,3.01,1.11,4.34
			c0.74,1.32,1.74,2.39,3.01,3.2C348.59,36.76,349.98,37.17,351.49,37.17z"/>
		<path class="st4" d="M366.83,38.43V9.37h1.96v29.06H366.83z"/>
		<path class="st4" d="M392.01,38.95c-1.89,0-3.62-0.47-5.18-1.42c-1.57-0.94-2.82-2.21-3.75-3.81c-0.93-1.6-1.39-3.37-1.39-5.32
			c0-1.95,0.46-3.72,1.39-5.32c0.93-1.6,2.18-2.87,3.75-3.81c1.57-0.94,3.3-1.42,5.18-1.42c1.92,0,3.65,0.47,5.21,1.42
			c1.55,0.94,2.8,2.22,3.73,3.81c0.93,1.6,1.39,3.37,1.39,5.32c0,1.95-0.47,3.72-1.39,5.32c-0.93,1.6-2.17,2.87-3.73,3.81
			C395.66,38.48,393.93,38.95,392.01,38.95z M392.01,37.17c1.57,0,2.98-0.39,4.23-1.18c1.25-0.78,2.24-1.84,2.96-3.18
			c0.73-1.34,1.09-2.8,1.09-4.4c0-1.57-0.37-3.01-1.11-4.33s-1.74-2.39-2.98-3.2c-1.25-0.81-2.64-1.22-4.18-1.22
			c-1.57,0-2.98,0.39-4.23,1.18s-2.24,1.84-2.96,3.16c-0.73,1.32-1.09,2.8-1.09,4.42c0,1.57,0.37,3.01,1.11,4.34
			c0.74,1.32,1.74,2.39,3.01,3.2C389.11,36.76,390.5,37.17,392.01,37.17z"/>
		<path class="st4" d="M409,38.43V20.22h-4.01v-1.83H409v-2.31c0-2.38,0.54-4.21,1.61-5.49c1.07-1.28,2.6-1.92,4.58-1.92
			c1.28,0,2.36,0.22,3.25,0.65c0.89,0.44,1.61,0.99,2.16,1.66l-1.26,1.22c-0.61-0.61-1.22-1.05-1.83-1.33
			c-0.61-0.28-1.32-0.41-2.13-0.41c-0.84,0-1.6,0.17-2.27,0.52c-0.67,0.35-1.19,0.98-1.57,1.9c-0.38,0.92-0.57,2.24-0.57,3.99v1.52
			h6.62v1.83h-6.62v18.21H409z"/>
	</g>
	<g>
		<path class="st4" d="M0,73.65l1.31-29.06h2.27l10.11,17.25l10.33-17.25h2l1.31,29.06h-2.09l-1-25.79L14.2,64.5h-1.35L3.09,47.9
			l-1,25.75H0z"/>
	</g>
	<g>
		<path class="st4" d="M48.67,73.65h-1.87c-0.03-0.41-0.05-0.86-0.06-1.37c-0.02-0.51-0.02-1.17-0.02-1.98
			c-0.7,1.02-1.48,1.81-2.35,2.37c-0.87,0.57-1.76,0.96-2.66,1.18c-0.9,0.22-1.73,0.33-2.48,0.33c-1.1,0-2.2-0.17-3.29-0.5
			c-1.09-0.33-1.99-0.94-2.7-1.81c-0.71-0.87-1.07-2.09-1.07-3.66c0-1.31,0.29-2.48,0.87-3.53c0.58-1.05,1.51-1.88,2.79-2.5
			c1.28-0.62,2.96-0.94,5.05-0.94c1.22,0,2.31,0.04,3.27,0.13s1.77,0.19,2.44,0.3v-1.13c0-2.21-0.52-3.7-1.57-4.49
			s-2.56-1.18-4.53-1.18c-1.66,0-2.97,0.24-3.94,0.72c-0.97,0.48-1.72,0.94-2.24,1.37l-1.05-1.35c0.55-0.52,1.44-1.08,2.68-1.66
			c1.23-0.58,2.74-0.87,4.51-0.87c2.58,0,4.58,0.55,5.99,1.66c1.41,1.1,2.11,2.93,2.11,5.49v9.24c0,0.58,0,1.13,0,1.63
			c0,0.51,0.01,0.95,0.04,1.33L48.67,73.65z M46.62,66.24v-2.83c-0.61-0.14-1.37-0.27-2.29-0.37s-2.08-0.15-3.51-0.15
			c-1.48,0-2.66,0.18-3.53,0.54c-0.87,0.36-1.53,0.82-1.98,1.37c-0.45,0.55-0.74,1.13-0.87,1.74c-0.13,0.61-0.2,1.16-0.2,1.66
			c0,1.45,0.49,2.51,1.46,3.18c0.97,0.67,2.21,1,3.73,1c1.34,0,2.54-0.3,3.62-0.89c1.07-0.59,1.94-1.36,2.59-2.31
			C46.29,68.24,46.62,67.26,46.62,66.24z"/>
		<path class="st4" d="M56.29,67.51V55.44h-4.01v-1.83h4.01v-6.62h1.96v6.62h6.62v1.83h-6.62v11.59c0,1.57,0.16,2.74,0.48,3.51
			c0.32,0.77,0.75,1.27,1.29,1.5c0.54,0.23,1.15,0.35,1.85,0.35c0.73,0,1.35-0.13,1.87-0.39c0.52-0.26,1.05-0.71,1.57-1.35
			l1.22,1.18c-0.58,0.76-1.24,1.34-1.98,1.74s-1.71,0.61-2.9,0.61c-1.05,0-1.98-0.19-2.79-0.57c-0.81-0.38-1.45-1.04-1.9-2
			C56.52,70.64,56.29,69.28,56.29,67.51z"/>
		<path class="st4" d="M69.97,73.65V44.59h1.96v13.03c0.32-0.61,0.81-1.26,1.46-1.96c0.65-0.7,1.49-1.3,2.51-1.81
			c1.02-0.51,2.27-0.76,3.75-0.76c2.85,0,4.84,0.79,5.97,2.37c1.13,1.58,1.7,3.73,1.7,6.43v11.76h-1.96V62.54
			c0-2-0.23-3.56-0.7-4.66c-0.47-1.1-1.14-1.87-2.03-2.31c-0.89-0.44-1.97-0.65-3.25-0.65c-1.68,0-3.08,0.44-4.18,1.31
			c-1.1,0.87-1.92,1.95-2.46,3.25c-0.54,1.29-0.81,2.58-0.81,3.86v10.33H69.97z"/>
		<path class="st4" d="M109.14,69.47l1.39,1.18c-0.87,1.08-2.06,1.93-3.55,2.57c-1.5,0.64-3.03,0.96-4.6,0.96
			c-1.98,0-3.74-0.44-5.29-1.33c-1.55-0.89-2.77-2.13-3.64-3.73c-0.87-1.6-1.31-3.43-1.31-5.49c0-1.95,0.41-3.72,1.22-5.32
			c0.81-1.6,1.95-2.87,3.42-3.81c1.47-0.94,3.14-1.42,5.03-1.42c1.83,0,3.47,0.42,4.92,1.26c1.45,0.84,2.59,2.08,3.42,3.72
			c0.83,1.64,1.24,3.67,1.24,6.08H94.33c0.06,1.51,0.43,2.88,1.11,4.12c0.68,1.23,1.62,2.22,2.81,2.96
			c1.19,0.74,2.57,1.11,4.14,1.11c1.25,0,2.52-0.26,3.81-0.79C107.49,71.04,108.47,70.34,109.14,69.47z M94.37,62.45h14.9
			c-0.26-2.44-1.05-4.31-2.37-5.6c-1.32-1.29-3.01-1.94-5.08-1.94c-1.42,0-2.68,0.34-3.77,1.02c-1.09,0.68-1.95,1.59-2.59,2.72
			C94.82,59.79,94.46,61.06,94.37,62.45z"/>
		<path class="st4" d="M116.51,73.65V57.83c0-1.13,0-1.96,0-2.48c0-0.52-0.03-1.1-0.09-1.74h1.83c0.06,0.64,0.09,1.21,0.11,1.72
			c0.01,0.51,0.02,1.33,0.02,2.46c0.32-0.61,0.79-1.28,1.42-2c0.62-0.73,1.44-1.36,2.46-1.9c1.02-0.54,2.25-0.81,3.7-0.81
			c1.95,0,3.43,0.41,4.44,1.24c1.02,0.83,1.73,1.98,2.13,3.46c0.29-0.55,0.78-1.19,1.48-1.92c0.7-0.73,1.58-1.37,2.66-1.94
			s2.32-0.85,3.75-0.85c1.8,0,3.22,0.36,4.25,1.07c1.03,0.71,1.76,1.73,2.18,3.05c0.42,1.32,0.63,2.88,0.63,4.68v11.76h-1.96V62.54
			c0-2-0.21-3.56-0.63-4.66c-0.42-1.1-1.02-1.87-1.81-2.31c-0.78-0.44-1.76-0.65-2.92-0.65c-1.31,0-2.51,0.34-3.59,1.02
			c-1.09,0.68-1.96,1.57-2.61,2.66c-0.65,1.09-0.98,2.26-0.98,3.51v11.55h-1.96V62.54c0-2-0.2-3.56-0.61-4.66
			c-0.41-1.1-1-1.87-1.79-2.31c-0.78-0.44-1.76-0.65-2.92-0.65c-1.6,0-2.93,0.44-4.01,1.31c-1.07,0.87-1.88,1.95-2.42,3.25
			c-0.54,1.29-0.81,2.58-0.81,3.86v10.33H116.51z"/>
		<path class="st4" d="M168.92,73.65h-1.87c-0.03-0.41-0.05-0.86-0.06-1.37c-0.02-0.51-0.02-1.17-0.02-1.98
			c-0.7,1.02-1.48,1.81-2.35,2.37c-0.87,0.57-1.76,0.96-2.66,1.18c-0.9,0.22-1.73,0.33-2.48,0.33c-1.1,0-2.2-0.17-3.29-0.5
			c-1.09-0.33-1.99-0.94-2.7-1.81c-0.71-0.87-1.07-2.09-1.07-3.66c0-1.31,0.29-2.48,0.87-3.53c0.58-1.05,1.51-1.88,2.79-2.5
			c1.28-0.62,2.96-0.94,5.05-0.94c1.22,0,2.31,0.04,3.27,0.13s1.77,0.19,2.44,0.3v-1.13c0-2.21-0.52-3.7-1.57-4.49
			s-2.56-1.18-4.53-1.18c-1.66,0-2.97,0.24-3.94,0.72c-0.97,0.48-1.72,0.94-2.24,1.37l-1.05-1.35c0.55-0.52,1.44-1.08,2.68-1.66
			c1.23-0.58,2.74-0.87,4.51-0.87c2.58,0,4.58,0.55,5.99,1.66c1.41,1.1,2.11,2.93,2.11,5.49v9.24c0,0.58,0,1.13,0,1.63
			c0,0.51,0.01,0.95,0.04,1.33L168.92,73.65z M166.87,66.24v-2.83c-0.61-0.14-1.37-0.27-2.29-0.37s-2.08-0.15-3.51-0.15
			c-1.48,0-2.66,0.18-3.53,0.54c-0.87,0.36-1.53,0.82-1.98,1.37c-0.45,0.55-0.74,1.13-0.87,1.74c-0.13,0.61-0.2,1.16-0.2,1.66
			c0,1.45,0.49,2.51,1.46,3.18c0.97,0.67,2.21,1,3.73,1c1.34,0,2.54-0.3,3.62-0.89c1.07-0.59,1.94-1.36,2.59-2.31
			C166.55,68.24,166.87,67.26,166.87,66.24z"/>
		<path class="st4" d="M176.55,67.51V55.44h-4.01v-1.83h4.01v-6.62h1.96v6.62h6.62v1.83h-6.62v11.59c0,1.57,0.16,2.74,0.48,3.51
			c0.32,0.77,0.75,1.27,1.29,1.5c0.54,0.23,1.15,0.35,1.85,0.35c0.73,0,1.35-0.13,1.87-0.39c0.52-0.26,1.05-0.71,1.57-1.35
			l1.22,1.18c-0.58,0.76-1.24,1.34-1.98,1.74s-1.71,0.61-2.9,0.61c-1.05,0-1.98-0.19-2.79-0.57c-0.81-0.38-1.45-1.04-1.9-2
			C176.77,70.64,176.55,69.28,176.55,67.51z"/>
		<path class="st4" d="M189.92,49.42v-2.88h2.75v2.88H189.92z M190.31,73.65V53.61h1.96v20.04H190.31z"/>
		<path class="st4" d="M213.97,69.47l1.39,1.22c-0.81,1.02-1.91,1.85-3.29,2.51c-1.38,0.65-2.93,0.98-4.64,0.98
			c-1.95,0-3.68-0.46-5.19-1.39c-1.51-0.93-2.7-2.19-3.57-3.79c-0.87-1.6-1.31-3.38-1.31-5.36c0-2,0.44-3.8,1.33-5.38
			c0.89-1.58,2.09-2.84,3.62-3.77c1.52-0.93,3.23-1.39,5.12-1.39c1.77,0,3.27,0.31,4.51,0.94c1.23,0.62,2.29,1.49,3.16,2.59
			l-1.48,1.13c-0.67-0.87-1.5-1.56-2.51-2.07c-1-0.51-2.23-0.76-3.68-0.76c-1.54,0-2.91,0.39-4.12,1.18
			c-1.21,0.78-2.15,1.84-2.83,3.16c-0.68,1.32-1.02,2.78-1.02,4.38c0,1.57,0.35,3.01,1.05,4.34c0.7,1.32,1.65,2.38,2.85,3.18
			c1.21,0.8,2.56,1.2,4.07,1.2c1.45,0,2.74-0.26,3.86-0.79C212.41,71.04,213.3,70.34,213.97,69.47z"/>
		<path class="st4" d="M235.54,73.65h-1.87c-0.03-0.41-0.05-0.86-0.06-1.37c-0.02-0.51-0.02-1.17-0.02-1.98
			c-0.7,1.02-1.48,1.81-2.35,2.37c-0.87,0.57-1.76,0.96-2.66,1.18c-0.9,0.22-1.73,0.33-2.48,0.33c-1.1,0-2.2-0.17-3.29-0.5
			c-1.09-0.33-1.99-0.94-2.7-1.81c-0.71-0.87-1.07-2.09-1.07-3.66c0-1.31,0.29-2.48,0.87-3.53c0.58-1.05,1.51-1.88,2.79-2.5
			c1.28-0.62,2.96-0.94,5.05-0.94c1.22,0,2.31,0.04,3.27,0.13s1.77,0.19,2.44,0.3v-1.13c0-2.21-0.52-3.7-1.57-4.49
			s-2.56-1.18-4.53-1.18c-1.66,0-2.97,0.24-3.94,0.72c-0.97,0.48-1.72,0.94-2.24,1.37l-1.05-1.35c0.55-0.52,1.44-1.08,2.68-1.66
			c1.23-0.58,2.74-0.87,4.51-0.87c2.58,0,4.58,0.55,5.99,1.66c1.41,1.1,2.11,2.93,2.11,5.49v9.24c0,0.58,0,1.13,0,1.63
			c0,0.51,0.01,0.95,0.04,1.33L235.54,73.65z M233.49,66.24v-2.83c-0.61-0.14-1.37-0.27-2.29-0.37s-2.08-0.15-3.51-0.15
			c-1.48,0-2.66,0.18-3.53,0.54c-0.87,0.36-1.53,0.82-1.98,1.37c-0.45,0.55-0.74,1.13-0.87,1.74c-0.13,0.61-0.2,1.16-0.2,1.66
			c0,1.45,0.49,2.51,1.46,3.18c0.97,0.67,2.21,1,3.73,1c1.34,0,2.54-0.3,3.62-0.89c1.07-0.59,1.94-1.36,2.59-2.31
			C233.17,68.24,233.49,67.26,233.49,66.24z"/>
		<path class="st4" d="M241.38,73.65V44.59h1.96v29.06H241.38z"/>
		<path class="st4" d="M256.28,69.82l1.52-1.48c0.99,1.16,2.18,2.13,3.57,2.9c1.39,0.77,3.06,1.15,5.01,1.15
			c2.24,0,4.08-0.52,5.53-1.55c1.45-1.03,2.18-2.56,2.18-4.6c0-1.45-0.36-2.61-1.07-3.49c-0.71-0.87-1.63-1.55-2.77-2.05
			s-2.31-0.9-3.53-1.22c-1.1-0.32-2.2-0.66-3.29-1.02s-2.08-0.83-2.96-1.39c-0.89-0.57-1.6-1.32-2.13-2.27
			c-0.54-0.94-0.81-2.13-0.81-3.55c0-1.34,0.36-2.56,1.07-3.68c0.71-1.12,1.74-2.01,3.09-2.68c1.35-0.67,2.97-1,4.86-1
			c1.66,0,3.05,0.22,4.18,0.65c1.13,0.44,2.07,0.96,2.81,1.57c0.74,0.61,1.31,1.21,1.72,1.79l-1.48,1.26
			c-0.35-0.46-0.83-0.95-1.44-1.46c-0.61-0.51-1.39-0.95-2.33-1.33c-0.94-0.38-2.13-0.57-3.55-0.57c-1.6,0-2.9,0.27-3.9,0.81
			c-1,0.54-1.74,1.23-2.2,2.07c-0.46,0.84-0.7,1.73-0.7,2.66c0,1.39,0.41,2.48,1.22,3.25c0.81,0.77,1.85,1.37,3.12,1.81
			c1.26,0.44,2.55,0.83,3.86,1.18c1.02,0.26,2.03,0.6,3.03,1c1,0.41,1.92,0.93,2.74,1.57c0.83,0.64,1.49,1.45,1.98,2.44
			c0.49,0.99,0.74,2.21,0.74,3.66c0,1.69-0.44,3.13-1.33,4.34c-0.89,1.21-2.08,2.13-3.59,2.79c-1.51,0.65-3.2,0.98-5.05,0.98
			c-2.44,0-4.52-0.47-6.25-1.42C258.41,71.99,257.12,70.95,256.28,69.82z"/>
	</g>
	<g>
		<path class="st4" d="M296.76,69.47l1.39,1.22c-0.81,1.02-1.91,1.85-3.29,2.51c-1.38,0.65-2.93,0.98-4.64,0.98
			c-1.95,0-3.68-0.46-5.19-1.39c-1.51-0.93-2.7-2.19-3.57-3.79c-0.87-1.6-1.31-3.38-1.31-5.36c0-2,0.44-3.8,1.33-5.38
			c0.89-1.58,2.09-2.84,3.62-3.77c1.52-0.93,3.23-1.39,5.12-1.39c1.77,0,3.27,0.31,4.51,0.94c1.23,0.62,2.29,1.49,3.16,2.59
			l-1.48,1.13c-0.67-0.87-1.5-1.56-2.51-2.07c-1-0.51-2.23-0.76-3.68-0.76c-1.54,0-2.91,0.39-4.12,1.18
			c-1.21,0.78-2.15,1.84-2.83,3.16c-0.68,1.32-1.02,2.78-1.02,4.38c0,1.57,0.35,3.01,1.05,4.34c0.7,1.32,1.65,2.38,2.85,3.18
			c1.21,0.8,2.56,1.2,4.07,1.2c1.45,0,2.74-0.26,3.86-0.79C295.2,71.04,296.09,70.34,296.76,69.47z"/>
		<path class="st4" d="M302.43,49.42v-2.88h2.75v2.88H302.43z M302.82,73.65V53.61h1.96v20.04H302.82z"/>
		<path class="st4" d="M326.87,69.47l1.39,1.18c-0.87,1.08-2.06,1.93-3.55,2.57c-1.5,0.64-3.03,0.96-4.6,0.96
			c-1.98,0-3.74-0.44-5.29-1.33c-1.55-0.89-2.77-2.13-3.64-3.73c-0.87-1.6-1.31-3.43-1.31-5.49c0-1.95,0.41-3.72,1.22-5.32
			c0.81-1.6,1.95-2.87,3.42-3.81c1.47-0.94,3.14-1.42,5.03-1.42c1.83,0,3.47,0.42,4.92,1.26c1.45,0.84,2.59,2.08,3.42,3.72
			c0.83,1.64,1.24,3.67,1.24,6.08h-17.08c0.06,1.51,0.43,2.88,1.11,4.12c0.68,1.23,1.62,2.22,2.81,2.96
			c1.19,0.74,2.57,1.11,4.14,1.11c1.25,0,2.52-0.26,3.81-0.79C325.22,71.04,326.2,70.34,326.87,69.47z M312.1,62.45H327
			c-0.26-2.44-1.05-4.31-2.37-5.6c-1.32-1.29-3.01-1.94-5.08-1.94c-1.42,0-2.68,0.34-3.77,1.02c-1.09,0.68-1.95,1.59-2.59,2.72
			C312.55,59.79,312.19,61.06,312.1,62.45z"/>
		<path class="st4" d="M334.23,73.65V57.83c0-1.13,0-1.96,0-2.48c0-0.52-0.03-1.1-0.09-1.74h1.83c0.06,0.64,0.09,1.21,0.11,1.72
			c0.01,0.51,0.02,1.33,0.02,2.46c0.32-0.61,0.8-1.28,1.44-2c0.64-0.73,1.48-1.36,2.53-1.9c1.05-0.54,2.32-0.81,3.83-0.81
			c2.85,0,4.84,0.79,5.97,2.37c1.13,1.58,1.7,3.73,1.7,6.43v11.76h-1.96V62.54c0-2-0.23-3.56-0.7-4.66
			c-0.46-1.1-1.14-1.87-2.03-2.31c-0.89-0.44-1.97-0.65-3.25-0.65c-1.69,0-3.08,0.44-4.18,1.31c-1.1,0.87-1.92,1.95-2.46,3.25
			c-0.54,1.29-0.81,2.58-0.81,3.86v10.33H334.23z"/>
		<path class="st4" d="M373.01,69.47l1.39,1.22c-0.81,1.02-1.91,1.85-3.29,2.51c-1.38,0.65-2.93,0.98-4.64,0.98
			c-1.95,0-3.68-0.46-5.19-1.39c-1.51-0.93-2.7-2.19-3.57-3.79c-0.87-1.6-1.31-3.38-1.31-5.36c0-2,0.44-3.8,1.33-5.38
			c0.89-1.58,2.09-2.84,3.62-3.77c1.52-0.93,3.23-1.39,5.12-1.39c1.77,0,3.27,0.31,4.51,0.94c1.23,0.62,2.29,1.49,3.16,2.59
			l-1.48,1.13c-0.67-0.87-1.5-1.56-2.51-2.07c-1-0.51-2.23-0.76-3.68-0.76c-1.54,0-2.91,0.39-4.12,1.18
			c-1.21,0.78-2.15,1.84-2.83,3.16c-0.68,1.32-1.02,2.78-1.02,4.38c0,1.57,0.35,3.01,1.05,4.34c0.7,1.32,1.65,2.38,2.85,3.18
			c1.21,0.8,2.56,1.2,4.07,1.2c1.45,0,2.74-0.26,3.86-0.79C371.45,71.04,372.34,70.34,373.01,69.47z"/>
	</g>
	<g>
		<path class="st4" d="M393.66,69.47l1.39,1.18c-0.87,1.08-2.06,1.93-3.55,2.57s-3.03,0.96-4.6,0.96c-1.98,0-3.74-0.44-5.29-1.33
			c-1.55-0.89-2.77-2.13-3.64-3.73c-0.87-1.6-1.31-3.43-1.31-5.49c0-1.95,0.41-3.72,1.22-5.32c0.81-1.6,1.95-2.87,3.42-3.81
			c1.47-0.94,3.14-1.42,5.03-1.42c1.83,0,3.47,0.42,4.92,1.26c1.45,0.84,2.59,2.08,3.42,3.72c0.83,1.64,1.24,3.67,1.24,6.08h-17.08
			c0.06,1.51,0.43,2.88,1.11,4.12c0.68,1.23,1.62,2.22,2.81,2.96c1.19,0.74,2.57,1.11,4.14,1.11c1.25,0,2.52-0.26,3.81-0.79
			C392.01,71.04,392.99,70.34,393.66,69.47z M378.89,62.45h14.9c-0.26-2.44-1.05-4.31-2.38-5.6c-1.32-1.29-3.01-1.94-5.08-1.94
			c-1.42,0-2.68,0.34-3.77,1.02c-1.09,0.68-1.95,1.59-2.59,2.72C379.34,59.79,378.98,61.06,378.89,62.45z"/>
		<path class="st4" d="M399.72,71.12l1.26-1.39c0.84,0.84,1.81,1.49,2.9,1.94c1.09,0.45,2.38,0.68,3.86,0.68
			c1.07,0,2.07-0.14,2.98-0.41s1.65-0.69,2.2-1.24s0.83-1.25,0.83-2.09c0-0.99-0.25-1.74-0.76-2.24c-0.51-0.51-1.27-0.92-2.29-1.22
			c-1.02-0.3-2.27-0.63-3.75-0.98c-1.22-0.29-2.3-0.63-3.25-1.02c-0.94-0.39-1.69-0.95-2.24-1.68c-0.55-0.73-0.83-1.7-0.83-2.92
			s0.35-2.24,1.05-3.05s1.6-1.42,2.72-1.81c1.12-0.39,2.32-0.59,3.59-0.59c1.54,0,2.92,0.29,4.14,0.87s2.21,1.32,2.96,2.22
			l-1.35,1.22c-0.7-0.75-1.5-1.37-2.42-1.83s-2.01-0.7-3.29-0.7c-0.84,0-1.68,0.09-2.5,0.28c-0.83,0.19-1.52,0.55-2.07,1.09
			c-0.55,0.54-0.83,1.33-0.83,2.38c0,0.84,0.3,1.51,0.92,2c0.61,0.5,1.39,0.89,2.35,1.18c0.96,0.29,1.95,0.55,2.96,0.79
			c1.1,0.23,2.19,0.54,3.27,0.94c1.07,0.39,1.97,0.96,2.68,1.7c0.71,0.74,1.07,1.78,1.07,3.12s-0.39,2.44-1.18,3.31
			c-0.78,0.87-1.79,1.51-3.01,1.92s-2.48,0.61-3.79,0.61c-1.86,0-3.46-0.28-4.79-0.83C401.78,72.79,400.65,72.05,399.72,71.12z"/>
	</g>
</g>
</svg>
